<svg xmlns="http://www.w3.org/2000/svg" xmlns:xlink="http://www.w3.org/1999/xlink" version="1.1" x="0px" y="0px" viewBox="756.5 0.1 443.3 900" width="443.3px" height="900px" enable-background="new 756.5 0.1 443.3 900" xml:space="preserve"><g><path d="M825.2 15.9c0 2.3 0.5 4.6 0.5 7.1v3c0 1.6 0 3 0.2 4.3c0.2 1.2 0.5 2.3 0.5 4.1L826 36c0 2 0.7 3.7 0.7 6.2 c0 1.6-0.4 3.2-0.4 4.6c0 2 0 5 1.8 5c0.9 0 1.8-0.2 2.7-0.2c1.2 0 3.2 1.1 3.2 3.7c0 2.1 0.2 6.2-1.8 6.2c-0.7 0-1.8-0.4-2.5-0.4 c-3.6 0-8.7 0.5-12.5 0.5c-0.9 0-1.8 0-2.5 0c-1.2 0-2.1 0.5-3.2 0.5c-1.2 0-2.7-0.9-2.7-2.7c0-1.1 0.4-2.3 0.5-3.6 c0-0.9 0-3.9 0.7-4.5c0.7-0.4 3.2-0.5 4.6-0.5c0.2 0 0.5 0 0.9 0c0-4.8 0.2-10 0.2-15c0-3 0-5.9-0.4-8.6c-3 4.3-5.2 10-7.1 14.8 c-0.5 1.4-1.1 2.5-2 3.6c-1.6 2-1.1 2.1-2.3 5.2c-0.5 1.4-1.6 2.5-2.1 3.7c-1.2 3-1.4 6.8-7 6.8c-4.1 0-5-5.9-5.2-6.1 c-0.2-0.7-1.1-1.1-1.4-1.6c-0.7-1.4-0.9-3.2-1.6-4.8c-0.4-0.9-1.2-1.6-1.8-2.5c-2.3-4.3-3.9-8.4-5-10.5c-1.2-2.1-2.9-6.6-5-8.9 c-0.2 5.5-0.9 11.2-0.9 17.1c0 1.6 0 7.3 1.1 7.3c0.7 0 1.6 0 2.1 0c1.8 0 4.1 1.1 4.1 3v1.1c0 0.4 0.4 1.1 0.4 1.8 c0 2.1 0 3.9-2 3.9h-0.9c-1.1 0-2.1 0-3.2 0c-2.9 0-5.9-0.4-8.6-0.4c-1.1 0-2 0.4-2.9 0.4c-0.5 0-1.1 0-1.8 0 c-0.9 0-1.6 0.2-2.3 0.2c-1.8 0-2.9-0.9-2.9-3.4c0-1.4 0.5-2.3 0.5-3.2c0-0.5-0.4-1.4-0.4-2.1c0-1.1 1.1-1.2 2.9-1.2 c1.4 0 2.3 0.4 3.2 0.4c0.7 0 0.5-0.4 1.1-0.5c0-0.5 0-1.1 0-1.6c0-3.7 0.5-7.5 0.5-11.2c0-2 0-3.7 0-5.7c0-4.8 0-10 0.5-14.8 c0-0.9 0-1.8 0-2.7V13c0-0.7 0-1.4 0-2.1c0.2 0-0.2-0.2-0.7-0.2c-1.2 0-2.5 0.4-3.6 0.4c-1.4 0-3.4-0.5-3.4-2.5 c0-0.7 0.4-1.4 0.4-2.1s-0.7-2.1-0.7-3.4c0-1.1 0.4-1.8 2.1-1.8c1.6 0 3.4 0.2 4.6 0.2c1.4 0 3.2-0.2 4.6-0.2 c3.9 0 4.6 1.8 6.2 5.7c0.4 0.7 1.1 1.4 1.4 2.1c0.5 1.2 1.1 2.5 2 3.7c2.1 3 1.6 4.1 4.6 8.4c0.9 1.8 2.5 3 3.2 5 c0.9 4.5 3.6 5.3 7 14.3c0.2 0.7 1.2 2.9 2.1 3.6c0.9-0.9 1.8-1.8 2.5-2.9c1.2-1.6 2.1-4.3 3-6.2c1.2-2.7 2.7-5.3 4.1-7.8 c2-3.6 4.1-7.3 5.5-10.3c1.8-3.9 3.7-7.1 6.1-12.1c1.6-2.5 2-3.6 6.6-3.9c3 0 9.8 0.4 9.8 2.9c0 0.4-0.2 0.5-0.2 1.2v0.9 c0 0.7-0.2 1.8-0.2 2.3v1.2c0 1.1-0.5 1.2-1.8 1.2c-0.7 0-1.4 0-2-0.2c-1.1 0.2-2.3 0.4-3.4 0.4C825.6 12.5 825.2 14.1 825.2 15.9z M762.5 57.9c0.2 0 0.5 0 0.9 0c-0.7 0-1.1-0.4-1.8-0.5c0 0.2 0 0.4 0 0.5H762.5z M765.9 7.8c0.4 0 0.7 0 0.9 0c-0.4 0-0.9 0-1.4 0 s-0.9 0-1.1 0.2h1.6V7.8z M771.6 36.2c-0.2 0.9-0.4 2.1-0.4 3.4c0 0.7 0 1.6 0 2.1C771.2 39.6 771.4 37.6 771.6 36.2z M773.2 22.1 c0.2 0 0.4 0 0.5 0c0 0 0 0 0.2 0c-0.2-0.2-0.5-0.4-0.9-0.5L773.2 22.1L773.2 22.1z M777.8 18.2c0 0.7 0.5 1.6 1.2 1.8 C778.7 19.3 778.3 18.5 777.8 18.2z M778.5 54.5c0 0 0 0-0.2 0h-0.2C778.3 54.5 778.3 54.7 778.5 54.5L778.5 54.5z M786.2 32.4 c-0.5-0.5-0.7-1.4-1.2-2C785.1 31.2 785.5 32.1 786.2 32.4z M787.6 43.9c0.5 1.1 1.1 2.5 1.8 3.2C788.8 46 788.1 44.6 787.6 43.9z M789 37.4c0 0 0-0.2-0.2-0.4C789 37.4 789 37.6 789 37.4z M792.4 53.7c-0.2-0.9-0.5-2-1.1-2.3C791.5 51.9 791.9 53.3 792.4 53.7z M792.8 44.9c0-0.2-0.2-0.4-0.2-0.4s0 0 0 0.2C792.4 44.9 792.6 44.9 792.8 44.9L792.8 44.9z M800.8 44.9c0-0.2 0.4-0.7 0.4-0.9 l0 0c-0.2 0.4-0.5 0.5-0.7 0.9C800.6 44.7 800.6 44.9 800.8 44.9z M815.8 58.8c0.5 0 1.1 0 1.4 0H817c-0.7 0-1.2-0.2-2-0.2 c-0.2 0-0.5 0-0.7 0.2C814.9 58.8 815.4 58.8 815.8 58.8z M818.6 15.3L818.6 15.3c-0.2 0.5-0.7 1.1-0.9 1.8 C818.4 17.1 818.6 16.2 818.6 15.3z M819.9 34.2c0-1.2-0.2-2.5-0.4-3.6c0.2 1.8 0 3.7 0.2 5.3C819.9 35.5 819.9 34.9 819.9 34.2z M819.9 49.7c-0.4-0.7-0.2-2.5-0.4-3.4v2c0 0.5 0 1.2 0 1.8C819.7 50.1 819.7 49.7 819.9 49.7z M821.3 23c0-1.6 0.4-2.9 0.4-4.3 c-0.4 0.9-0.5 2.1-0.5 3.4c0 0.5 0 1.1 0.2 1.4L821.3 23L821.3 23z M821.6 25c0 1.1 0 2.5 0.4 3.4C822 27.3 822.2 25.7 821.6 25z M829.7 7.5c-0.5 0-1.4-0.2-2.1-0.2c-0.7 0-1.6 0-2.1 0.4C826.6 7.5 828.4 7.7 829.7 7.5z"/><path d="M892.6 49.6c-1.4-3.6-1.1-4.5-5-4.5c-1.2 0-2.5 0-3.2 0c-0.9 0-1.8-0.4-2.7-0.4c-1.4 0-2.9 0.4-4.3 0.4 c-1.8 0-3.4-0.5-5.3-0.5c-1.4 0-2.5 0.2-3.9 0.2c-0.7 2.3-2.1 3.7-2.5 6.4c3.9 0 5 0 5 4.5c0 2.5-0.2 4.6-2.5 4.6c-1.1 0-2.1 0-3 0 c-2.3 0-3.6 0.7-5.3 0.7c-1.1 0-2.1-0.5-2.9-0.5c-1.4 0-4.5 0.4-5.9 0.4c-1.8 0-3-0.4-3.2-2c0-0.5 0.4-1.8 0.4-2.9 c0-1.8-0.5-2.1-0.5-3.4c0-1.1 1.1-1.2 2.3-1.2c0.9 0 1.8 0 2.7 0c2.7 0 2.5-2 3.4-3.4c0.5-1.1 1.4-2 2-3c0.4-0.7 0.5-1.8 0.9-2.5 c1.6-3.4 2.7-9.4 5.7-13.4c1.8-2.3 2.7-4.5 3.6-7.5c0.9-3.6 3.2-5.7 4.3-9.3s2.3-5.2 4.1-9.3c0.5-1.2 0.5-2.3 2-2.3 c0.5 0 0.9 0.2 1.2 0.2c0.5 0 0.7-0.4 1.2-0.4c2.3 0 2.7 3 3.4 4.8c0.9 2.3 3 4.3 4.3 9.1c0 0.4 0 0.9 0.2 1.2c0.4 1.8 3 3.4 3 5.5 c0 1.8 1.4 2.7 2.1 4.1c1.1 2 0.7 3.9 2.1 6.8c0.9 2 2.1 3.7 3 5.9c0.9 2.5 2.1 6.4 3.6 8.2c0.9 2 2.3 3.4 3 5c0.9 0 1.8 0 2.1 0.2 c0.4-0.2 0.9-0.2 1.2-0.2c2 0 3 2 3 3.9c0 1.1-0.5 1.2-0.5 3c0 0.5 0 0.9 0 1.4c0 1.1-0.2 1.6-2 1.6c-0.7 0-1.6-0.2-2.3-0.2 c-0.9 0-2 0.2-2.9 0.2c-1.8 0-3-0.5-4.3-0.5c-0.7 0-1.8 0.5-2.9 0.5c-0.9 0-1.2-0.7-2.1-0.7c-0.9 0-1.6 0.5-2.7 0.5 c-3.7 0-3.6-2.9-3.6-5.9c0-5 2.1-3.6 4.8-4.3C893.3 50.4 892.8 50.1 892.6 49.6z M854.4 54.5h-3c0 0.2 0 0.2 0 0.4 C852.7 55.1 853.7 55.1 854.4 54.5z M857.7 57.8L857.7 57.8C857.8 57.9 857.7 57.8 857.7 57.8z M857.8 57.9c0.4 0 0.7 0 1.1 0 c1.1 0 2.1-0.4 2.9-0.5c-1.1 0-2.1 0.5-3.2 0.5H857.8z M864.4 43.7c-0.5 0.7-1.1 1.8-1.1 2.7C863.7 45.6 864.4 44.7 864.4 43.7z M865.5 34.8c0 0.2-0.4 0.5-0.2 0.9C865.3 35.5 865.5 34.9 865.5 34.8z M866.2 57.4c0.2 0 0.4 0 0.4-0.2c-0.2 0-0.7 0-0.9 0 C865.9 57.4 866 57.4 866.2 57.4z M866.9 32.1c-0.2 0.4-0.7 0.7-0.7 1.2C866.6 32.8 866.9 32.6 866.9 32.1z M870.3 38.9 c0.4 0 0.9 0.2 1.2 0.2c0 0 0.2 0 0.4 0c-0.5 0-0.7-0.4-1.4-0.4C870.3 38.7 870.3 38.9 870.3 38.9z M873.5 31.9 c-0.5 1.6-1.4 2.7-2.1 4.1c0.9 0.2 1.8 0.2 2.5 0.2c1.2 0 2.7-0.2 4.1-0.2c1.4 0 2.7 0.4 3.9 0.4c1.6 0 3 0 4.6 0 c-0.4-0.9-0.4-1.8-0.7-2.7c-0.9-3.9-3.6-7.3-4.1-8.6c-0.4-1.1-0.5-2.1-0.9-3.2c-0.2-0.4-1.6-3-1.6-3.4c0 0 0 0 0 0.2 C876.7 23.4 874.9 27.6 873.5 31.9z M878.9 13.4c0 0 0-0.2 0-0.4c0 0.4-0.5 0.9-0.5 1.2C878.3 14.1 878.9 13.7 878.9 13.4z M881.2 7.1c0.5 0.7 0.7 2 1.4 2.1C882.1 8.6 881.7 7.8 881.2 7.1z M883.3 10.7c0.2 0.2 0 1.4 0.7 1.6 C883.9 11.9 883.5 11.1 883.3 10.7L883.3 10.7z M885.3 42.1c0.2 0 0.5 0 0.7 0c-0.4-0.2-0.7-0.2-1.2-0.2c-0.4 0-0.7 0-1.1 0.2 C884.2 42.1 884.7 42.1 885.3 42.1z M884.9 24.1c0 0.4 0.2 1.1 0.5 1.2C885.5 24.8 885.3 24.2 884.9 24.1z M888.8 32.3 c0 0.2 0 0.4 0 0.4C889 32.6 889 32.3 888.8 32.3z M890.1 25.8c0 0.7 0.4 0.9 0.5 1.4C890.5 26.7 890.3 26.2 890.1 25.8z M894 54.2 c-0.7 0.4-1.6-0.2-1.8 0.4C892.9 54.5 893.7 54.5 894 54.2z M892.9 34L892.9 34c0 0.2 0.2 1.1 0.5 1.1l0 0l-0.4-0.5 C893.1 34.4 892.9 34 892.9 34z M894.6 54.2h0.7c0 0 0-0.2-0.2-0.2C894.9 54 894.7 54.2 894.6 54.2z M900.6 49.7 c-0.7-1.4-1.4-2.7-2.3-4.1c0.2 1.1 0.9 1.6 1.2 2.5C899.9 48.8 900.1 49.4 900.6 49.7z M903.1 57.9c0.2 0 0.5 0 0.7-0.2 c-0.5 0-1.1-0.2-1.8-0.2c-0.7 0-1.1 0-1.4 0.2C901.5 57.8 902.4 57.9 903.1 57.9z M907.2 54.5h0.5c-0.2 0-0.2 0-0.4 0 C907.4 54.5 907.2 54.5 907.2 54.5z"/><path d="M964.8 42.2c0.4 0.5 1.2 0.7 1.8 1.4c0.9 0.9 2.7 3.2 3 4.3c0.4 0.4 0.9 0.5 1.2 1.1c1.4 1.4 1.4 1.8 4.3 2.7h1.2 c1.6 0 3.6 0.9 3.6 2.5c0 0.4-0.2 0.9-0.2 1.2v0.9c0 5-0.9 5.3-7.7 5.3c-7.1 0-11.2-7-11.6-7.5l-1.4-2.7c-1.1-1.6-2.5-2.3-3.2-4.3 c-0.5-1.2-0.2-1.4-2-2.7c-1.1-0.7-0.9-1.1-2.1-1.1c-1.2 0-2.5 0.2-3.6 0.2c-0.7 0-1.4 0-2-0.4c-0.9 0.4-2 0.5-3 0.5 c-0.4 0.7-0.4 1.6-0.4 2.7c0 0.9 0 1.8 0 2.5c0 0.9 0 1.8-0.4 2.3c1.1 0.2 2.1 0.4 3.4 0.4c1.4 0 2.1-0.5 3-0.5 c1.1 0 2.1 0.9 2.1 2.1c0 0.5-0.2 1.4-0.2 2.3c0 1.6 0.4 3.6 0.4 4.3c0 0.9-0.7 1.1-1.4 1.1c-2.1 0-3.9-0.4-5.5-0.4 c-2.7 0-4.8 0.2-7.7 0.2c-0.9 0-2-0.2-2.7-0.2c-1.2 0-2.1 0.5-3.4 0.5c-2.3 0-4.8-0.7-4.8-3.4c0-0.9 0-2 0-2.5c0-0.5 0-1.2 0-1.8 c0-1.6 0.4-2.1 2.1-2.1c1.1 0 2.1 0.2 2.9 0.2c0.5 0 0.9-0.2 1.4-0.2c0-2.7-0.2-5.7-0.2-8.7c0-3.4 0.5-6.2 0.5-9.1 c0-1.6-0.5-3.2-0.5-4.6c0-0.5 0-1.1 0.2-1.6c0-0.7-0.2-1.6-0.2-2.3c0-2.5 0.2-5.5 0.2-8.4c0-1.6-0.5-3-0.5-4.6c0-0.4 0-0.7 0-1.1 c-2.3-0.5-6.1 0.4-6.4-2.1c0-0.7 0.4-1.6 0.4-2.9c0-0.9-0.5-2.1-0.5-2.9c0-1.4 0.9-1.8 2.1-1.8c0.9 0 2 0.2 2.9 0.2 c2 0 3.9-0.4 6.1-0.4c1.2 0 2.3 0.4 3.6 0.4c2.5 0 5-0.4 7.7-0.4c14.8 0 22.5 4.8 25 9.8c1.4 2.9 2.7 8.2 2.7 12.5 c0 4.8-1.6 9.3-4.6 12.5c-2 2-3.6 4.3-6.6 5C964.3 41.2 964.4 41.9 964.8 42.2z M929 4.5c0 0.2 0.4 0.2 0.5 0.2h0.4 C929.7 4.5 929.3 4.5 929 4.5z M930 58.3l-0.7-0.2v0.4C929.5 58.3 929.8 58.3 930 58.3z M934.7 4.5c-0.7 0-1.6 0-2.1 0.2 C933.2 4.6 934.1 4.8 934.7 4.5z M935.4 13.7c0-0.2 0-0.4 0-0.5V13c0 0.2 0 0.4 0 0.5C935.2 13.5 935.2 13.5 935.4 13.7z M935.7 48 c0-1.2-0.2-2.3-0.4-3.7v2.9c0 0.9 0 1.8 0.2 2.3C935.6 49 935.7 48.5 935.7 48z M936.1 25c0-0.5 0-1.1-0.4-1.4v0.5 c0 0.9-0.2 1.8-0.2 2.5c0 0.2 0 0.5 0 0.7C935.7 26.7 936.1 25.8 936.1 25z M942.1 57.9c-0.7 0-1.6-0.2-2.3-0.2 c-0.7 0-1.2 0-1.8 0.4L942.1 57.9z M939.3 15.5V15c-0.2 0.2-0.2 0.5-0.2 0.9c0 0.4 0 0.9 0.2 1.1C939.3 16.6 939.3 16 939.3 15.5z M939.5 10.5c0-0.7 0.2-1.6 0.2-2.1V8.2c-0.4 0.4-0.4 0.7-0.4 1.1C939.1 9.6 939.3 10.2 939.5 10.5z M941.1 36.4 C941.1 36.4 941.3 36.4 941.1 36.4c-0.2-0.4-0.4-0.7-0.7-1.1C940.5 35.8 940.9 36.4 941.1 36.4z M956.6 33.3c1.4-0.4 3 0 6.2-4.8 c1.1-1.6 1.6-3.4 1.6-6.2c0-6.1-4.8-10-7.8-10.7c-2.5-0.7-6.1-0.9-8.9-0.9c-1.6 0-3.2 0-4.5 0.4v0.2c0 0.7-0.2 1.6-0.2 2.1 c0 1.1 0 2.1 0 3.2c0 1.2-0.2 2.5-0.2 3.7c0 1.1 0.2 2.5 0.2 3.9c0 1.8-0.4 3.7-0.4 6.6c0 4.6 4.3 3.9 7.1 3.9c1.1 0 2.1 0 3.2-0.2 C954.3 34.4 955.3 33.7 956.6 33.3z M945.4 57.9c-0.4 0-0.9 0-1.4 0c-0.4 0-0.7 0-1.1 0.2h1.6C944.6 57.9 945.4 57.9 945.4 57.9z M951.1 38.1c0.7 0 1.6 0 2.1-0.4c-0.5 0-1.1 0-1.6 0h-3C949.3 38.1 950.2 38.1 951.1 38.1z M961.8 50.8L961.8 50.8 c0.4 0.5 0.5 1.2 0.9 1.8C962.6 51.9 961.8 50.8 961.8 50.8z M963.7 44.9c0.2 0.2 0.5 0.7 0.7 0.7 C964.3 45.5 964.1 44.9 963.7 44.9z M969.2 11.4c-1.1-1.8-2.5-3.4-4.5-4.1c0.4 0.4 0.9 0.5 1.4 0.9 C967.5 9.1 968.2 10.5 969.2 11.4z M966.7 18.2c0-0.2 0-0.4 0-0.5c0-1.4-0.7-2.1-1.6-2.7C965.9 15.9 966.6 17.1 966.7 18.2z M967.3 29.4c-0.4 0.4-0.7 1.1-0.7 1.8v0.2C966.9 30.7 967.3 29.9 967.3 29.4z M968.2 26.6c0-0.2 0-0.5-0.2-0.9L968.2 26.6 c-0.2 0.2-0.2 0.4 0 0.5C968.2 26.9 968.2 26.7 968.2 26.6z M975.7 58.3c0 0 0.2-0.2 0.2-0.4l0 0C975.7 57.9 975.7 58.1 975.7 58.3 L975.7 58.3z"/><path d="M1028.1 4.5c0-0.7-0.7-1.2-0.7-2c0-0.9 0.9-1.4 2.3-1.4c0.7 0 2 0.2 2.9 0.2c0.7 0 1.4 0 2 0c1.6 0 2.5 1.2 2.5 2.3 c0 1.2-0.5 2.5-0.5 3.4c0 1.8 0.5 3 0.5 5.2c0 1.2-0.5 2-0.5 2.9c0 0.5 0 1.2 0 1.8c0 1.6-0.7 2-2.1 2c-1.1 0-2.5-0.2-3.6-0.2 c-0.4 0.2-0.7 0.2-1.1 0.2c-2.7 0-2.7-4.3-3.4-5.3c-0.7-2.1-5.5-3.9-8.7-3.9c-2.7 0-8 2-8 5c0 1.2 0.9 2.3 0.9 3.7 c0 0.4 0 0.9 0 1.4c0 2.5 6.8 5 10.7 7c5.2 2.9 11.9 4.1 16 12.7c0.9 1.8 1.6 3.9 1.6 6.2c0 2-0.7 3.9-1.2 5.9 c-0.9 3-2.9 4.3-5 6.4c0 0.2 0 0.4 0 0.5c0 2.3-7 3.6-7.1 3.6c-1.2 0.5-2.5 0.9-4.3 0.9c-1.2 0-3.2 0-4.5-0.2 c-1.1-0.2-1.8-0.9-3-0.9c-3.7 0-5.2-2.3-6.1-3c-0.5-0.5-1.4-0.9-2-1.4c0 0.2 0 0.4 0 0.7c0 0.7 0.2 1.6 0.2 2.3 c0 0.9-0.2 1.4-1.4 1.4c-0.4 0-0.7 0-1.1-0.2c-0.9 0.2-2.1 0.4-3.4 0.4c-1.8 0-3.6-0.5-3.6-2.5c0-0.7 0.4-1.8 0.4-2.5 c0-0.5-0.2-1.2-0.2-2c0-1.2 0.2-2.7 0.2-3.7c0-1.6-0.9-1.6-0.9-3.4c0-3.4 0.2-4.8 3.4-4.8c1.1 0 2.1 0.2 3.4 0.2 c0.5 0 1.1-0.2 1.6-0.2c0.9 0.2 2 1.1 2 2.1c0 0.2 0 0.5-0.2 0.7c0.4 4.1 4.8 4.6 6.8 6.6c1.2 0.4 2.7 0.5 3.9 0.5 c5.5 0 10.9-3.4 10.9-6.4c0-0.9 0-1.8 0-2.5c0-0.4 0-0.7 0-1.1c-1.1-2.9-6.4-4.6-9.8-6.8c-1.8-1.1-2.7-1.6-8-4.1 c-1.6-0.7-3.6-1.2-4.8-2.3c-4.1-3.9-2.7-1.1-5.9-8.4c-0.5-1.1-1.1-2.9-1.1-3.9c0-3.4 2-7.5 2.3-8.6c2.7-5.5 10.2-7.7 10.2-7.8 c0 0 1.2 0 1.8-0.2c1.1-0.2 1.8-0.9 3.4-0.9c8.9 0 10.7 4.5 11.9 4.8C1027.9 4.6 1028.1 4.5 1028.1 4.5z M1000.8 45.8 c-0.2 0-0.4 0.5-0.4 1.1c0 0.2 0 0.4 0.2 0.5C1000.4 46.7 1000.6 46.3 1000.8 45.8z M1006.5 15.7c0 0.9 0.2 2 0.5 2.5 C1007 17.1 1006.7 16.4 1006.5 15.7z M1007.2 7.7c0.4 0 0.9-0.2 0.9-0.5c-0.4 0.2-0.9 0-1.1 0.4C1007 7.5 1007 7.7 1007.2 7.7z M1009.7 5.7c-0.4 0.2-0.9 0.7-1.1 0.9L1009.7 5.7z M1008.6 26.6c0 0.4 0.4 0.7 0.5 0.7C1009.2 26.9 1009 26.7 1008.6 26.6z M1014.2 26c0.2 0.2 0.5 0.7 1.1 0.7h0.2C1015.2 26.6 1014.7 26.2 1014.2 26z M1014.3 58.1c0.4 0.4 1.2 0.4 2 0.4 c0.4 0 0.5 0 0.9 0C1016.5 58.1 1014.7 58.1 1014.3 58.1z M1014.7 31c0.4 0 0.7 0.4 1.1 0.4C1015.4 31.4 1014.9 31 1014.7 31z M1019.3 3.2h-0.2c0.2 0 0.5 0.2 0.7 0.2h0.2C1019.9 3.4 1019.7 3.2 1019.3 3.2z M1021.5 3.9c0 0.2 2 1.1 2.5 1.2 C1023.6 4.6 1022.7 3.9 1021.5 3.9z M1026.1 32.1c0.5 0.2 0.9 0.9 1.8 0.9C1027.4 32.4 1026.6 32.1 1026.1 32.1z M1031.1 50.8 C1031.1 50.6 1031.1 50.6 1031.1 50.8c-0.2 0-0.2 0-0.2 0.2C1030.9 51 1031.1 51 1031.1 50.8z M1033.4 10.7c0-0.5 0-1.2-0.2-1.6 c0 1.4-0.2 2.7-0.2 4.1C1033.2 12.5 1033.4 11.4 1033.4 10.7z M1034.5 40.8c0 0.5 0.2 0.7 0.4 0.9 C1034.8 41.5 1034.7 41.2 1034.5 40.8z"/><path d="M1074.6 13.2c0 2 0.2 3.9 0.2 6.1V23c0 1.8 0 3.7 0.2 5.3c2 0 4.1-0.4 5.9-0.4c1.6 0 3 0.2 4.5 0.2c1.1 0 2.1-0.2 3.2-0.2 c2.9 0 5.3 0.5 7.5 0.5c1.6 0 2.9-0.4 4.1-0.4h1.2c0.7 0 1.4-0.4 2.1-0.4h0.2c0.4-1.8 0.4-3.7 0.4-5.9v-3.2c0-1.8 0.2-3.4 0.2-5 c0-1.4 0.2-3-2.1-3h-1.6c-1.2 0-3.6-0.9-3.6-2.5c0-0.7 0.4-1.1 0.4-2c0-1.6-0.5-2.9-0.5-4.1c0-0.9 0.7-1.2 1.6-1.2 c1.1 0 2.1 0.4 2.9 0.4c0.8 0 1.4-0.2 2.1-0.2c0.5 0 0.9 0.2 1.2 0.5c2-0.4 4.5-0.7 7-0.7c1.6 0 2.9 0.4 4.1 0.4 c1.1 0 1.8-0.4 2.7-0.4c1.4 0 2.7 0.9 2.7 2.3c0 1.2-0.4 2.7-0.4 3.9c0 0.7 0.2 1.4 0.2 2.1c0 1.2-0.7 1.8-2.7 1.8 c-0.7 0-1.6 0-2.3 0c-0.5 0-1.1 0-1.1 0.4c0 2.1-0.7 3.7-0.7 5.7c0 1.4 0.4 2.5 0.4 4.1c0 1.2-0.4 2.7-0.4 3.9 c0 1.1 0.9 1.2 0.9 2.5c0 1.1-0.4 3.6-0.9 4.5c0 6.4 0.4 12.5 0.4 18.9c0.4 0.4 1.1 0.5 1.8 0.5s1.4-0.2 2.1-0.2 c1.1 0 2.7 0.4 3 1.8c0 0.5-0.2 1.1-0.2 1.6c0 1.1 0.2 2.1 0.2 3.4c0 0.4 0 0.9-0.2 1.4c0 0.4 0.2 0.5 0.2 0.9 c0 0.9-0.7 1.4-1.6 1.4c-1.1 0-1.8-0.7-2.5-0.7c-1.2 0-2.3 0.5-3.9 0.5c-1.8 0-3.9 0-5.3-0.2c-0.7 0-1.2-0.4-2-0.5 c-0.5 0-1.2 0.2-2 0.4h-0.9c-1.2 0-2.1 0.5-3.4 0.5c-2 0-3-1.2-3-7.3c0-0.5 0-2.9 1.6-2.9c0.7 0 1.4 0.2 2.1 0.2 c0.7 0 1.4-0.2 2.3-0.2h0.7c0.2-2.5 0.5-5 0.5-7.8c0-2.5 0-4.6-0.7-6.6c-0.4 0-0.9-0.2-1.2-0.2c-0.9 0-2 0.2-2.9 0.2 c-3.2 0-6.2-0.4-9.3-0.4c-4.6 0-13.4-0.2-15.2 0.7c-0.4 2.7-0.5 5.7-0.5 8.7c0 1.8 0 3.4 0 5.2c3 0.2 6.6-0.5 6.6 2.7 c0 3 0 7.1-2.3 7.1c-0.9 0-1.6-0.4-2.7-0.4c-2.3 0-5 0.7-7.8 0.7c-1.6 0-2.9-0.5-4.1-0.5c-1.1 0-2.5 0.4-3.9 0.4 c-2 0-3.2-0.9-3.2-3.6v-1.8c0-0.5 0-1.1 0-2.1c0-2.3 0.5-2.7 2.7-2.7c1.2 0 2.9 0.2 3.6 0.4c0.2-1.2 0.2-2.5 0.2-3.7v-2.5 c0-2.5 0.5-5.2 0.5-8v-2.5c0-2.1 0.4-4.5 0.4-6.6c0-1.2-0.5-2.5-0.5-3.7v-2c0-2.3-0.4-5.2-0.4-8c0-1.4 0-2.7 0.2-3.9 c-0.4 0-0.5 0-0.9 0h-0.7c-0.4 0-0.7-0.2-1.1-0.4c-0.5 0-1.1 0.2-1.6 0.2c-1.2 0-2.3-0.9-2.3-2.7V6.2c0-1.4-0.5-1.6-0.5-3 c0-1.8 0.7-2.5 2.9-2.5c0.9 0 1.6 0.7 3 0.7c1.2 0 2.5-0.4 3.9-0.4c2.3 0 5.2 0.2 7.7 0.2c1.2 0 2.3 0 3.6 0c3.2 0 3.6 0.9 3.6 6.4 c0 2 0 2.9-2.1 2.9c-0.5 0-1.1 0-1.4 0h-1.6c-0.5 0-1.1 0-1.4 0C1074.6 11.2 1074.6 12.1 1074.6 13.2z M1065.5 4.3c0 0-0.5 0-0.9 0 c-0.7 0-2 0-2.3 0.2c0.2 0 0.2 0 0.2 0C1063.2 4.3 1065.5 4.5 1065.5 4.3z M1067.8 58.1h0.9c-1.2 0-2.3-0.4-3.6-0.4 c-0.4 0-0.9 0-1.2 0C1065.1 58.1 1066.6 58.1 1067.8 58.1z M1065.9 4.3l2 0.2c0.2-0.2 0.5-0.2 0.7-0.5c-0.7 0-1.4 0.2-2.3 0.2h-0.4 V4.3z M1067.3 48.8c0-0.4 0-0.9 0-1.2c0-0.5 0-0.9 0-1.2V48.8z M1068.7 30.5c0-0.7-0.4-1.4-0.5-2.1c0.2 1.1 0 2.3 0.4 3 C1068.7 31.2 1068.7 30.8 1068.7 30.5z M1071.2 8.2h-0.4c0.2 0.7 0.2 1.4 0.2 2C1071.2 9.6 1071 8.7 1071.2 8.2z M1071 13.9 c0 0.5 0 0.9 0 1.4c0 0.7 0 1.4 0.2 2.1C1071.2 16 1071.2 14.8 1071 13.9z M1075.8 54.5c-0.2 0-0.4 0-0.5 0c0.2 0 0.5 0.2 0.7 0.2 s0.4 0 0.4-0.2H1075.8z M1077.3 4.5L1077.3 4.5c0-0.4-0.2-0.4-0.2-0.4h-0.2C1076.9 4.3 1076.9 4.5 1077.3 4.5z M1089.9 31.6 c-1.1 0-2.3 0-3.4 0c0.9 0.2 2.1 0.2 3.2 0.2c1.2 0 2.5 0 3.6-0.4h-3.4L1089.9 31.6L1089.9 31.6z M1102.8 4.8c-0.2 0-0.2 0-0.4 0 l0 0C1102.4 4.8 1102.6 4.8 1102.8 4.8L1102.8 4.8L1102.8 4.8z M1114.3 3.9h-1.4c-2.9 0-5.5 0.2-7.5 1.1 C1107.9 4.3 1111.5 4.3 1114.3 3.9z M1107.9 53.5v-0.2l0 0c0 0.4-0.5 0.4-0.5 0.7C1107.4 53.7 1107.6 53.7 1107.9 53.5z M1108.5 45.3c0-0.4 0-0.7-0.2-1.1v1.4c0 0.5 0 0.9 0 1.2C1108.3 46.5 1108.5 46 1108.5 45.3z M1110.2 27.3v0.9 c0 1.2 0 2.5 0.5 3.2C1110.4 30.1 1110.4 28.5 1110.2 27.3z M1110.6 38.9c0 0 0-0.4 0-0.7c0-0.3 0-0.9 0-1.2c0 0.2 0 0.5 0 0.7 c0 0.4 0 0.7 0 1.1V38.9z M1117.9 55.6c0-0.2 0-0.7-0.2-0.9c-0.2 0.2-0.7 0-0.7 0.2C1117.2 55.1 1117.5 55.4 1117.9 55.6z"/><path d="M1179.9 49.6c-1.4-3.6-1.1-4.5-5-4.5c-1.2 0-2.5 0-3.2 0c-0.9 0-1.8-0.4-2.7-0.4c-1.4 0-2.9 0.4-4.3 0.4 c-1.8 0-3.4-0.5-5.3-0.5c-1.4 0-2.5 0.2-3.9 0.2c-0.7 2.3-2.1 3.7-2.5 6.4c3.9 0 5 0 5 4.5c0 2.5-0.2 4.6-2.5 4.6c-1.1 0-2.1 0-3 0 c-2.3 0-3.6 0.7-5.3 0.7c-1.1 0-2.1-0.5-2.9-0.5c-1.4 0-4.5 0.4-5.9 0.4c-1.8 0-3-0.4-3.2-2c0-0.5 0.4-1.8 0.4-2.9 c0-1.8-0.5-2.1-0.5-3.4c0-1.1 1.1-1.2 2.3-1.2c0.9 0 1.8 0 2.7 0c2.7 0 2.5-2 3.4-3.4c0.5-1.1 1.4-2 2-3c0.4-0.7 0.5-1.8 0.9-2.5 c1.6-3.4 2.7-9.4 5.7-13.4c1.8-2.3 2.7-4.5 3.6-7.5c0.9-3.6 3.2-5.7 4.3-9.3s2.3-5.2 4.1-9.3c0.5-1.2 0.5-2.3 2-2.3 c0.5 0 0.9 0.2 1.2 0.2c0.5 0 0.7-0.4 1.2-0.4c2.3 0 2.7 3 3.4 4.8c0.9 2.3 3 4.3 4.3 9.1c0 0.4 0 0.9 0.2 1.2c0.4 1.8 3 3.4 3 5.5 c0 1.8 1.4 2.7 2.1 4.1c1.1 2 0.7 3.9 2.1 6.8c0.9 2 2.1 3.7 3 5.9c0.9 2.5 2.1 6.4 3.6 8.2c0.9 2 2.3 3.4 3 5c0.9 0 1.8 0 2.1 0.2 c0.4-0.2 0.9-0.2 1.2-0.2c2 0 3 2 3 3.9c0 1.1-0.5 1.2-0.5 3c0 0.5 0 0.9 0 1.4c0 1.1-0.2 1.6-2 1.6c-0.7 0-1.6-0.2-2.3-0.2 c-0.9 0-2 0.2-2.9 0.2c-1.8 0-3-0.5-4.3-0.5c-0.7 0-1.8 0.5-2.9 0.5c-0.9 0-1.2-0.7-2.1-0.7c-0.9 0-1.6 0.5-2.7 0.5 c-3.7 0-3.6-2.9-3.6-5.9c0-5 2.1-3.6 4.8-4.3C1180.6 50.4 1180.1 50.1 1179.9 49.6z M1141.8 54.5h-3c0 0.2 0 0.2 0 0.4 C1140 55.1 1141.1 55.1 1141.8 54.5z M1144.8 57.8C1145 57.8 1145 57.8 1144.8 57.8C1145 57.9 1145 57.8 1144.8 57.8z M1145 57.9 c0.4 0 0.7 0 1.1 0c1.1 0 2.1-0.4 2.9-0.5c-1.1 0-2.1 0.5-3.2 0.5H1145z M1151.8 43.7c-0.5 0.7-1.1 1.8-1.1 2.7 C1151.1 45.6 1151.6 44.7 1151.8 43.7z M1152.8 34.8c0 0.2-0.4 0.5-0.2 0.9C1152.7 35.5 1152.8 34.9 1152.8 34.8z M1153.6 57.4 c0.2 0 0.4 0 0.4-0.2c-0.2 0-0.7 0-0.9 0C1153.2 57.4 1153.4 57.4 1153.6 57.4z M1154.3 32.1c-0.2 0.4-0.7 0.7-0.7 1.2 C1153.9 32.8 1154.3 32.6 1154.3 32.1z M1157.5 38.9c0.4 0 0.9 0.2 1.2 0.2c0 0 0.2 0 0.4 0c-0.5 0-0.7-0.4-1.4-0.4 C1157.5 38.7 1157.7 38.9 1157.5 38.9z M1160.9 31.9c-0.5 1.6-1.4 2.7-2.1 4.1c0.9 0.2 1.8 0.2 2.5 0.2c1.2 0 2.7-0.2 4.1-0.2 c1.4 0 2.7 0.4 3.9 0.4c1.6 0 3 0 4.6 0c-0.4-0.9-0.4-1.8-0.7-2.7c-0.9-3.9-3.6-7.3-4.1-8.6c-0.4-1.1-0.5-2.1-0.9-3.2 c-0.2-0.4-1.6-3-1.6-3.4c0 0 0 0 0 0.2C1164.1 23.4 1162.1 27.6 1160.9 31.9z M1166 13.4c0 0 0-0.2 0-0.4c0 0.4-0.5 0.9-0.5 1.2 C1165.7 14.1 1166 13.7 1166 13.4z M1168.5 7.1c0.5 0.7 0.7 2 1.4 2.1C1169.4 8.6 1169.1 7.8 1168.5 7.1z M1170.5 10.7 c0.2 0.2 0 1.4 0.7 1.6C1171 11.9 1170.8 11.1 1170.5 10.7L1170.5 10.7z M1172.5 42.1c0.2 0 0.5 0 0.7 0c-0.4-0.2-0.7-0.2-1.2-0.2 c-0.4 0-0.7 0-1.1 0.2C1171.6 42.1 1172.1 42.1 1172.5 42.1z M1172.3 24.1c0 0.4 0.2 1.1 0.5 1.2 C1172.6 24.8 1172.5 24.2 1172.3 24.1z M1176.2 32.3c0 0.2 0 0.4 0 0.4C1176.4 32.6 1176.4 32.3 1176.2 32.3z M1177.3 25.8 c0 0.7 0.4 0.9 0.5 1.4C1177.8 26.7 1177.6 26.2 1177.3 25.8z M1181.4 54.2c-0.7 0.4-1.6-0.2-1.8 0.4 C1180.3 54.5 1181 54.5 1181.4 54.2z M1180.3 34L1180.3 34c0 0.2 0.2 1.1 0.5 1.1l0 0l-0.4-0.5C1180.5 34.4 1180.3 34 1180.3 34z M1181.9 54.2h0.7c0 0 0-0.2-0.2-0.2C1182.3 54 1182.1 54.2 1181.9 54.2z M1188 49.7c-0.7-1.4-1.4-2.7-2.3-4.1 c0.2 1.1 0.9 1.6 1.2 2.5C1187.2 48.8 1187.4 49.4 1188 49.7z M1190.5 57.9c0.2 0 0.5 0 0.7-0.2c-0.5 0-1.1-0.2-1.8-0.2 c-0.7 0-1.1 0-1.4 0.2C1188.8 57.8 1189.7 57.9 1190.5 57.9z M1194.4 54.5h0.5C1194.7 54.5 1194.7 54.5 1194.4 54.5 C1194.4 54.5 1194.6 54.5 1194.4 54.5z"/></g><g><path d="M854.4 213.9c4.1 7.1 2.1 16.2 18.5 16.2c1.2 0 2.1 0 3.4 0c3.6 0 7.1 2 7.1 7.5c0 2.7-0.5 5.5-0.5 8.2 c0 1.2 0.2 3.2 0.2 5.2c0 8.2-4.6 7.3-10.7 7.3c-1.8 0-4.1-0.9-6.1-0.9c-1.8 0-3.6 0.9-6.1 0.9c-9.3 0-10.3-5.9-18.2-18.5 c-4.3-6.8-7.5-11.6-15.5-23.9c-1.8-2.9-3-6.2-5.5-8.2c-1.8 1.2-5 1.8-8.2 1.8c-4.3 0-6.8-2.5-9.8-2.5c-1.2 0-3.6 3.4-3.6 5.5 c0 2.1 0.4 4.5 0.4 7.1c0 2.5 0 5.2 0 7.5c0 8 15.3-3.2 15.3 11.4c0 1.4 0 3.2 0 4.5c0 1.8 0 3.4 0 4.8c0 5.3-0.4 9.8-4.8 10 c-1.1 0-2.1-0.7-3.4-0.7c-2.9 0.5-6.1 2.9-9.6 2.9c-4.8 0-8.7-2.9-13.9-2.9c-5.9 0-8.9 2.9-16.4 2.9c-5.5 0-8.2-2.7-8.2-8.6 c0-2.9 0.5-6.1 0.5-9.3c0-4.1-1.6-5.2-1.6-7.3c0-3.9 11.9-4.6 16.8-4.6c0.2-2 0.9-4.1 0.9-6.2c0-5.5-1.1-11.9-1.1-18 c0-2.5 0.2-4.8 0.5-7.1c-0.4-2-1.2-3.6-1.2-5.5c0.4-2.7 1.2-3.4 1.2-7.1c0-23 0.2-49.4-0.9-71.7c-3.2-0.5-5.5-1.2-6.6-1.2 c-1.1 0-1.6 0.7-2.7 0.7c-3.2 0-5.5-3.2-5.5-8.2c0-1.8 0-3.9 0-5.9c0-2.7-0.5-6.1-0.5-8.9c0-2 0.5-3.6 2.7-3.6 c3.2 0 5.5 1.2 8.9 1.2c8.7 0 16.8-1.8 23.7-1.8c1.6 0 3.4 0 5.2 0.2c1.8 0 3.4 0 5.2 0c3.7 0 7.7 1.2 11.4 1.4 c6.6 0.7 13.7 0 19.8 1.4c7.1 1.8 16.4 4.8 22.5 10.5c11.9 11.2 15.2 24.6 15.5 26c0.9 3.4 2.9 4.8 2.9 10c0 4.5-0.2 8.9-0.4 13.4 c-0.2 4.8-2.1 8.9-2.1 13.9c0 0.9 0 2 0 2.9c0 12.3-6.8 18.7-11.8 25c-4.5 5.5-8.2 9.4-14.3 12.8 C848.9 208.7 852.3 210.7 854.4 213.9z M851.8 183.4c1.6-2.5 3.7-4.1 5-6.6c1.8-3.4 2.1-7.3 3-11.4c0.9-3.9 2.7-6.8 2.7-12.8 c0-2.7-0.2-5.3-0.2-8c0-2.9 0.2-6.1 0.2-8.9c0-7.1-2.9-14.1-6.1-18.9c-4.3-6.1-19.8-18.5-58.8-18.5c-2.7 0-5.5 0.2-8.2 0.2 c-1.2 0-2.5-0.7-3.6-0.7c-0.9 0-1.1 0.7-1.6 1.2c-2.9 0.5-5.9 0.9-9.1 0.9c-1.6 0-3.4-0.2-5-0.2c-1.4 0-2.5 0.2-2.7 2 c0 2.5 1.4 2.9 3.7 2.9c5 0 8.7-0.7 12.3-0.9c-0.9 1.8-1.1 3.9-1.1 6.1c0 1.4 0.2 2.9 0.4 4.6c1.2 13.9 1.8 30.3 1.8 46.7 c0 8.2-0.9 17.3-0.9 26.2c0 14.6 0.5 28.7 0.5 42.4c0 4.5-0.2 8.7-1.2 12.8c-2.7-0.2-5.7-0.2-8.9-0.2c-2.7 0-6.6-0.5-6.6 2.7 c0 1.8 1.4 2.1 3.4 2.1c3 0 5.7-0.5 7.5-0.5c7.3 0 13.7 2 22.5 2c2.1 0 4.3-0.5 4.3-2.5c0-3.2-13.2-2-17.8-3.4 c0.4-4.1 0.5-8.7 0.5-13.5c0-9.4-0.4-20-0.4-28.7c0.5 0.2 1.2 0.2 1.8 0.2c4.6 0 8.6-1.2 13.2-1.2c5.2 0 10.7 0.2 15.7 0.2 c3.4 0 6.6-0.2 9.1-1.8c1.2 1.8 1.4 4.1 2.1 6.1c2 4.5 5.9 7.3 8.6 10.9c3.6 8.6 11.9 14.8 16.4 25.5c3.2 8 6.6 8.2 17.1 8.2 c1.4 0 2.7-0.5 2.7-2.1c0-2.5-4.3-2.9-7.8-2.9c-1.2 0-2.7 0-3.6 0c-4.3 0-4.3-3.9-6.2-7.8c-4.8-8.9-9.8-14.8-15.3-23.5 c-3.2-5.2-8.9-8.2-9.4-15.5C840.7 195.4 847 190.2 851.8 183.4z M793.7 102.5c10.3 0 18.7 2.9 29.2 2.9c3 0 6.4 0 8.9 0.5 c10.2 2.1 27.1 11.4 27.1 29.4c0 2.7-0.2 5.5-0.2 8.2c0 3.4 0.2 6.2 0.2 8.9c0 5.5-1.6 7.5-2.5 11.4c-1.8 7.5-1.6 8.2-6.8 15.5 c-5.7 7.5-10.5 10.9-21 13.4c-3.2 0.7-5 2.5-8.9 2.5c-5.5 0-10.3-0.5-14.8-0.5c-5.7 0-11.1 0.7-17.3 0.9c0-1.8 0.2-3.6 0.2-5.3 c0-3.9-0.2-8-0.2-12.1c0-6.2 0.9-12.7 0.9-18.9c0-3.9-0.2-8-0.2-11.9c0-3.6 0-7.1 0-10.7c0-6.2-1.4-12.7-1.4-17.5 c0-1.2 0.2-2.1 0.2-3.4c-0.2-2-0.5-4.1-0.5-6.2c0-0.5 0-0.7 0-1.2c0.2-1.8 1.2-5.5 1.4-5.5C789.9 102.9 791.7 102.5 793.7 102.5z M807 181.8c3.2 0 5.9-0.9 9.8-0.9c1.6 0 3.4 0.2 5 0.2c8 0 16.6-4.5 20.5-8c5-4.6 6.2-18.9 6.2-28.7c0-26.2-28.7-29.6-31.9-29.9 c-2.5-0.2-4.8-0.2-7.3-0.2c-2.7 0-11.1 0.2-11.1 2c0 2.7 0.5 5.2 0.5 7.5c0 4.5-1.1 8.9-1.1 13.4c0 2.9 1.1 5.9 1.1 8.7 c0 0.7 0 1.2 0 2c0.4 4.5 1.6 8.2 1.6 12.1c0 3.6-1.4 6.6-1.4 11.2c0 5.9-0.5 10 6.8 10.7C806.3 181.8 806.7 181.8 807 181.8z"/><path d="M953.7 125c0 4.1 0.9 9.3 0.9 13.9c0 5.5-1.6 10-1.6 14.1c0 3.2 1.6 5.2 1.6 8.9c0 6.6-1.1 12.1-1.1 17.6 c0 9.4 1.4 18.5 1.4 27.6c0 8-0.5 16-0.9 23.5c0.9 0.5 1.8 0.5 2.9 0.5c2.1 0 4.6-0.7 6.8-0.7c2.7 0 6.2 2 6.2 7.1 c0 3.4-1.6 7.1-1.6 11.4c0 2 0.5 3.6 0.5 5.5c0 5.5-32.1 4.5-32.3 4.5c-2.9 0-5-1.4-7.1-1.4c-1.4 0-2.7 0.7-3.6 0.7 c-5 0-10.7 0.2-11.9-5.2c-0.9-3.4-0.4-7.3-0.9-11.9c-0.2-1.4-1.2-3.6-1.2-5.9c0-4.1 2.7-5.2 6.4-5.2c2.5 0 4.6 0.9 6.6 0.9 c1.6 0 2.5-0.9 3.7-0.9c0.2 0 0.2 0 0.4 0c0-7.5 0.4-15 0.4-22.3c0-5.5-1.2-10.2-1.2-15c0-1.8 0.2-3.4 0.2-5.2c0-2 0-4.1 0-6.1 c0-4.6 1.1-8.7 1.1-13.5c0-5.2-1.6-9.8-1.6-15.9c0-6.6 2-9.8 2-16.2c0-5.2-1.2-10.2-1.2-14.8c0-2.1 0.2-3.9 0.9-5.9 c-1.8 0-3.7 0.2-5.7 0.2c-5.9 0-10.7-1.2-10.7-10.9c0-2 0.2-4.5 0.2-6.6c0-1.8-0.2-3.6-0.2-5.5c0-4.5 3-6.1 6.2-6.1 c2.1 0 4.6 0.7 7.1 0.7c3.7 0 7.8-0.7 11.9-0.7c6.2 0 12.8 1.2 19.1 1.2c1.4 0 3.4-0.5 5.2-0.5c2.7 0 5.9 2.1 5.9 5.9 c0 0.9 0 2.1 0 2.9c0 1.2 0.4 2.1 0.4 3.6c0 2.1-0.5 4.1-0.5 6.8c0 1.4 0 2.9 0 4.1c0 4.5-1.8 5.2-4.8 5.2c-1.1 0-2.1-0.2-3.2-0.2 c-3.6 0-3.7 2-5.7 2c-0.2 0-0.5-0.2-0.9-0.2C954.4 119.8 953.7 122.5 953.7 125z M947 103.6c3 0 6.6-0.5 8.9-0.5 c0.5 0 1.4 0.2 2 0.2c1.1 0 1.8-0.5 1.8-2.1c0-2-1.6-2.5-3.4-2.5c-2.5 0-4.5 0.5-7.1 0.5c-4.6 0-10.3-0.7-15-0.7 c-0.4 0-12.1-0.7-12.1 3.2c0 1.8 0.9 2.1 1.8 2.1c2.1 0 4.6-0.7 6.8-0.7c1.6 0 3.4 0 5 0c1.1 0 2 0 3 0c0 0.5-0.2 0.7-0.2 1.2 c0 4.8 2.9 8 2.9 13.4c0 5.9-1.4 10.7-1.6 15.5c-0.5 10.5-0.2 21.9-0.2 33c0 15.9 0.9 31.4 0.9 46.2c0 7.8-1.8 14.3-1.8 21.4 c0 2.9 0.2 5.5 0.4 7.8c-2.9 0-4.6 0.9-7.5 0.9c-1.2 0-2.7 0-4.1 0c-2.7 0-4.8 0.2-5 2c0 2.5 2.5 3.2 5.5 3.2 c7.1 0 9.1-1.8 14.1-1.8c2.9 0 9.3 1.8 14.1 1.8c1.6 0 2.9-0.5 2.9-2.1c0-3.9-11.9-2.7-15.9-4.1c-0.4-2.5-0.5-5.2-0.5-8 c0-7.3 1.6-15.3 1.6-24.6c0-18.5-1.1-39.6-1.1-59.2c0-11.4 2-21.2 2-32.3c0-5.3-2.7-8.2-2.7-12.8c0-0.5 0-0.7 0.2-1.2 C943.9 103.6 945.4 103.6 947 103.6z"/><path d="M1068.9 126.6c0 8.2 0.2 16.6 0 25c0 4.1-0.9 8-0.5 11.9c0.2 1.2 0.9 2.1 1.1 3.4c0.5 4.5 0.5 8.6 0.4 12.1 c-0.2 3.4-1.1 6.6-1.4 10.7c-0.2 3.4 0.9 8 1.2 11.9c0.2 4.5-0.2 8.9-0.5 13.5c-0.5 4.5 0.2 8.9 0.2 13.4c2.9 0.7 4.1 2.1 6.8 2.1 c1.4 0.2 2.9-0.7 4.5-0.5c2 0.5 4.1 2.7 4.6 4.8c0.5 3.2-0.4 7.1-0.2 11.2c0 3.9 1.4 8.9-0.4 10.7c-1.2 1.2-2.9 0.7-5 0.7 c-1.1 0-2.1 0.2-3.6 0.2c-2.5 0-4.6-0.9-6.2-0.9c-2.9 0.2-5 1.2-7.5 1.4c-2.5 0.5-5.5 0.7-8.2 0.5c-1.2-0.2-2.7-1.2-4.1-1.2 c-0.9-0.2-1.6 0.2-2.5 0c-2 0-3.6-0.5-5.5-0.5c-2.1 0.2-6.6 1.2-8.9 0.5c-1.8-0.5-3.6-2.9-4.1-4.5c-0.2-1.2 0.2-2.9 0.2-4.6 c0.2-2.1 0.2-4.8 0-6.8c-0.2-3.2-1.4-5.3-1.1-7.5c1.2-5.5 9.4-3.6 15.2-3.6c0-8.7 0.4-16.9 1.1-25.5c0.2-4.5 0.9-8.6 0.9-12.7 c0-4.5-0.5-8.6-0.4-12.8c0.2-2.1 0.5-2.9 0.5-4.6c0-1.7-0.5-3.4-0.9-5.3c-0.4-4.6 0-10.5 0.2-15.3c0.2-1.8 0.4-2.9 0.4-4.5 c0-2.7-0.5-5.2-0.9-8c-0.2-2.5-0.2-5.2 0-7.5c0-1.2 0.4-2.1 0.4-3.2c0.2-3.4-0.5-6.6-0.5-9.4c-0.2-2.5 0.2-5.5-0.9-6.6 c-1.4-1.2-6.6 0-9.1-0.2c-2.9-0.2-4.6-1.2-7.3-0.9c-2.7 0-5 1.4-8.2 0.9c0.2 3.4-1.2 6.1-1.2 9.3c-0.2 2.9 1.8 6.1 0.2 8.6 c-1.1 1.4-3.2 1.2-5.9 1.2c-5.7 0.2-13.4 1.4-15.2-4.5c-0.9-2.5-0.5-8.6-0.4-12.7c0.2-2.1 0.9-4.1 0.9-6.6c0-4.1-0.4-8.2-0.5-11.4 c-0.2-4.6-0.4-10.2 1.8-11.4c1.6-0.9 5.5-0.2 7.8 0.2c2.9 0.5 5.9 0.2 7.7 0c3-0.2 5.7-0.2 8.2-0.5c6.6-0.9 13.2 0.5 20.1 0.5 c3.7 0 7.8 0.5 11.9 0.2c8.6-0.5 16.8-1.4 25-0.5c4.3 0.5 8.6 0.5 12.5 0.5c4.5 0 8.6-1.2 12.5-1.4c6.1-0.5 11.1 0.9 12.5 6.6 c0.9 3.9 0 9.8-0.2 14.6c-0.2 4.8-0.5 9.4-1.1 13.5c0 2.9 0.5 7.1-0.2 9.3c-1.2 3.4-5.7 3.2-10.2 3.2c-2.7 0-5 0.2-6.6-0.5 c-2-0.7-4.1-3.4-4.3-5.5c0-1.8 0.5-2.9 0.5-4.5c0.2-2.5 0-4.1-0.9-6.8c-3.2-1.4-7.3-1.4-11.4-1.4s-8.7 0-12.7 0 C1068.5 118.5 1068.9 122.8 1068.9 126.6z M1102.9 106.1c0 4.5-0.5 8.2-0.5 13.9c0 2.5 0.4 4.8 1.8 4.8c2.9 0 2.7-9.3 2.7-17.5 c0-3.4-0.4-6.6-2.1-7.8c-20 0.5-43.1 0.7-64.7 0.7c-7.5 0-13.7-2-21-2c-2 0-2.9 0.5-5.5 0.5c-1.1 0-2 0-2.9 0 c-4.1 0-4.5 1.2-4.5 4.1c0 3.2 0.4 6.8 0.4 10c0 2-0.2 4.1-0.2 5.9c0 2.7 0.4 4.6 1.8 4.6c2.7 0 2.1-6.2 2.1-9.3 c0-4.1-0.2-7.1-0.4-10.7c0.5 0 1.2 0.2 1.8 0.2c2.7 0 5.2-0.7 7.8-0.7c6.6 0 11.8 2 18 2c5.7 0 11.1-0.5 16.9-0.7 c-0.2 0.7-0.2 1.8-0.2 2.5c0 4.1 0.9 8.2 0.9 11.6c0 1.8 0 3.2 0 4.6c0.4 5.9 0.4 11.6 0.4 17.5c0 5.2 0 10.2 0 15.3 c0 6.1 0.2 12.1 0.2 18c0 10.7-1.2 21.2-1.2 31.9c0 7.5 0.2 15 0.2 22.6c0 4.5 0 8.9-0.2 13.5c-0.9 0.2-1.8 0.2-2.9 0.2 c-2.1 0-4.8-0.2-7.3-0.2c-0.5 0-6.4 0-6.4 4.1c0 0.9 1.4 2.5 2 2.5c1.8 0 2.5-2.5 7.8-2.5c9.4 0 12.3 2 19.6 2 c3.6 0 5.9-0.5 5.9-2.5c0-2-2-2.5-4.1-2.5c-1.2 0-2.7 0.2-3.4 0.2c-3.2 0-5-0.5-7.5-1.2c0-25.3 1.1-50.1 1.1-73.1 c0-4.8-0.2-9.4-0.2-14.1c0-3.6 0.4-7.1 0.4-10.7c0-13.9-0.9-27.3-1.4-39.8c8.6 0 17.3 0.2 26 0.2c6.4 0 12.7-0.2 18.7-0.5 C1102.9 104.5 1102.9 105.2 1102.9 106.1z"/><path d="M1182.8 125c0 4.1 0.9 9.3 0.9 13.9c0 5.5-1.6 10-1.6 14.1c0 3.2 1.6 5.2 1.6 8.9c0 6.6-1.1 12.1-1.1 17.6 c0 9.4 1.4 18.5 1.4 27.6c0 8-0.5 16-0.9 23.5c0.9 0.5 1.8 0.5 2.9 0.5c2.1 0 4.6-0.7 6.8-0.7c2.7 0 6.2 2 6.2 7.1 c0 3.4-1.6 7.1-1.6 11.4c0 2 0.5 3.6 0.5 5.5c0 5.5-32.1 4.5-32.3 4.5c-2.9 0-5-1.4-7.1-1.4c-1.4 0-2.7 0.7-3.6 0.7 c-5 0-10.7 0.2-11.9-5.2c-0.9-3.4-0.4-7.3-0.9-11.9c-0.2-1.4-1.2-3.6-1.2-5.9c0-4.1 2.7-5.2 6.4-5.2c2.5 0 4.6 0.9 6.6 0.9 c1.6 0 2.5-0.9 3.7-0.9c0.2 0 0.2 0 0.4 0c0-7.5 0.4-15 0.4-22.3c0-5.5-1.2-10.2-1.2-15c0-1.8 0.2-3.4 0.2-5.2c0-2 0-4.1 0-6.1 c0-4.6 1.1-8.7 1.1-13.5c0-5.2-1.6-9.8-1.6-15.9c0-6.6 2-9.8 2-16.2c0-5.2-1.2-10.2-1.2-14.8c0-2.1 0.2-3.9 0.9-5.9 c-1.8 0-3.7 0.2-5.7 0.2c-5.9 0-10.7-1.2-10.7-10.9c0-2 0.2-4.5 0.2-6.6c0-1.8-0.2-3.6-0.2-5.5c0-4.5 3-6.1 6.2-6.1 c2.1 0 4.6 0.7 7.1 0.7c3.7 0 7.8-0.7 11.9-0.7c6.2 0 12.8 1.2 19.1 1.2c1.4 0 3.4-0.5 5.2-0.5c2.7 0 5.9 2.1 5.9 5.9 c0 0.9 0 2.1 0 2.9c0 1.2 0.4 2.1 0.4 3.6c0 2.1-0.5 4.1-0.5 6.8c0 1.4 0 2.9 0 4.1c0 4.5-1.8 5.2-4.8 5.2c-1.1 0-2.1-0.2-3.2-0.2 c-3.6 0-3.7 2-5.7 2c-0.2 0-0.5-0.2-0.9-0.2C1183.5 119.8 1182.8 122.5 1182.8 125z M1176 103.6c3 0 6.6-0.5 8.9-0.5 c0.5 0 1.4 0.2 2 0.2c1.1 0 1.8-0.5 1.8-2.1c0-2-1.6-2.5-3.4-2.5c-2.5 0-4.5 0.5-7.1 0.5c-4.6 0-10.3-0.7-15-0.7 c-0.4 0-12.1-0.7-12.1 3.2c0 1.8 0.9 2.1 1.8 2.1c2.1 0 4.6-0.7 6.8-0.7c1.6 0 3.4 0 5 0c1.1 0 2 0 3 0c0 0.5-0.2 0.7-0.2 1.2 c0 4.8 2.9 8 2.9 13.4c0 5.9-1.4 10.7-1.6 15.5c-0.5 10.5-0.2 21.9-0.2 33c0 15.9 0.9 31.4 0.9 46.2c0 7.8-1.8 14.3-1.8 21.4 c0 2.9 0.2 5.5 0.4 7.8c-2.9 0-4.6 0.9-7.5 0.9c-1.2 0-2.7 0-4.1 0c-2.7 0-4.8 0.2-5 2c0 2.5 2.5 3.2 5.5 3.2 c7.1 0 9.1-1.8 14.1-1.8c2.9 0 9.3 1.8 14.1 1.8c1.6 0 2.9-0.5 2.9-2.1c0-3.9-11.9-2.7-15.9-4.1c-0.4-2.5-0.5-5.2-0.5-8 c0-7.3 1.6-15.3 1.6-24.6c0-18.5-1.1-39.6-1.1-59.2c0-11.4 2-21.2 2-32.3c0-5.3-2.7-8.2-2.7-12.8c0-0.5 0-0.7 0.2-1.2 C1173 103.6 1174.4 103.6 1176 103.6z"/></g><g><path d="M825.2 655.9c0 2.3 0.5 4.6 0.5 7.1v3c0 1.6 0 3 0.2 4.3c0.2 1.2 0.5 2.3 0.5 4.1l-0.4 1.6c0 2 0.7 3.7 0.7 6.2 c0 1.6-0.4 3.2-0.4 4.6c0 2 0 5 1.8 5c0.9 0 1.8-0.2 2.7-0.2c1.2 0 3.2 1.1 3.2 3.7c0 2.1 0.2 6.2-1.8 6.2c-0.7 0-1.8-0.4-2.5-0.4 c-3.6 0-8.7 0.5-12.5 0.5c-0.9 0-1.8 0-2.5 0c-1.2 0-2.1 0.5-3.2 0.5c-1.2 0-2.7-0.9-2.7-2.7c0-1.1 0.4-2.3 0.5-3.6 c0-0.9 0-3.9 0.7-4.5c0.7-0.4 3.2-0.5 4.6-0.5c0.2 0 0.5 0 0.9 0c0-4.8 0.2-10 0.2-15c0-3 0-5.9-0.4-8.7c-3 4.3-5.2 10-7.1 14.8 c-0.5 1.4-1.1 2.5-2 3.6c-1.6 2-1.1 2.1-2.3 5.2c-0.5 1.4-1.6 2.5-2.1 3.7c-1.2 3-1.4 6.8-7 6.8c-4.1 0-5-5.9-5.2-6.1 c-0.2-0.7-1.1-1.1-1.4-1.6c-0.7-1.4-0.9-3.2-1.6-4.8c-0.4-0.9-1.2-1.6-1.8-2.5c-2.3-4.3-3.9-8.4-5-10.5c-1.2-2.1-2.9-6.6-5-8.9 c-0.2 5.5-0.9 11.2-0.9 17.1c0 1.6 0 7.3 1.1 7.3c0.7 0 1.6 0 2.1 0c1.8 0 4.1 1.1 4.1 3v1.1c0 0.4 0.4 1.1 0.4 1.8 c0 2.1 0 3.9-2 3.9h-0.9c-1.1 0-2.1 0-3.2 0c-2.9 0-5.9-0.4-8.6-0.4c-1.1 0-2 0.4-2.9 0.4c-0.5 0-1.1 0-1.8 0 c-0.9 0-1.6 0.2-2.3 0.2c-1.8 0-2.9-0.9-2.9-3.4c0-1.4 0.5-2.3 0.5-3.2c0-0.5-0.4-1.4-0.4-2.1c0-1.1 1.1-1.2 2.9-1.2 c1.4 0 2.3 0.4 3.2 0.4c0.7 0 0.5-0.4 1.1-0.5c0-0.5 0-1.1 0-1.6c0-3.7 0.5-7.5 0.5-11.2c0-2 0-3.7 0-5.7c0-4.8 0-10 0.5-14.8 c0-0.9 0-1.8 0-2.7v-2.1c0-0.7 0-1.4 0-2.1c-0.5 0-0.9-0.2-1.4-0.2c-1.4 0-2.5 0.4-3.7 0.4c-1.4 0-3.4-0.5-3.4-2.5 c0-0.7 0.4-1.4 0.4-2.1s-0.7-2.1-0.7-3.4c0-1.1 0.4-1.8 2.1-1.8c1.6 0 3.4 0.2 4.6 0.2c1.4 0 3.2-0.2 4.6-0.2 c3.9 0 4.6 1.8 6.2 5.7c0.4 0.7 1.1 1.4 1.4 2.1c0.5 1.2 1.1 2.5 2 3.7c2.1 3 1.6 4.1 4.6 8.4c0.9 1.8 2.5 3 3.2 5 c0.9 4.5 3.6 5.3 7 14.3c0.2 0.7 1.2 2.9 2.1 3.6c0.9-0.9 1.8-1.8 2.5-2.9c1.2-1.6 2.1-4.3 3-6.2c1.2-2.7 2.7-5.3 4.1-7.8 c2-3.6 4.1-7.3 5.5-10.3c1.8-3.9 3.7-7.1 6.1-12.1c1.6-2.5 2-3.6 6.6-3.9c3 0 9.8 0.4 9.8 2.9c0 0.4-0.2 0.5-0.2 1.2v0.9 c0 0.7-0.2 1.8-0.2 2.3v1.2c0 1.1-0.5 1.2-1.8 1.2c-0.7 0-1.4 0-2-0.2c-1.4 0-2.5 0.2-3.7 0.2C825.6 652.5 825.2 654.1 825.2 655.9 z M762.5 698.2c0.2 0 0.5 0 0.9 0c-0.7 0-1.1-0.4-1.8-0.5c0 0.2 0 0.4 0 0.5H762.5z M765.9 647.9c0.4 0 0.7 0 0.9 0 c-0.4 0-0.9 0-1.4 0s-0.9 0-1.1 0.2h1.6V647.9z M771.6 676.3c-0.2 0.9-0.4 2.1-0.4 3.4c0 0.7 0 1.6 0 2.1 C771.2 679.7 771.4 677.7 771.6 676.3z M773.2 662.1c0.2 0 0.4 0 0.5 0c0 0 0 0 0.2 0c-0.2-0.2-0.5-0.4-0.9-0.5L773.2 662.1 L773.2 662.1z M777.8 658.2c0 0.7 0.5 1.6 1.2 1.8C778.7 659.3 778.3 658.6 777.8 658.2z M778.5 694.7c0 0 0 0-0.2 0h-0.2 C778.3 694.7 778.3 694.9 778.5 694.7L778.5 694.7z M786.2 672.5c-0.5-0.5-0.7-1.4-1.2-2C785.1 671.2 785.5 672.1 786.2 672.5z M787.6 684c0.5 1.1 1.1 2.5 1.8 3.2C788.8 686.1 788.1 684.7 787.6 684z M789 677.6c0 0 0-0.2-0.2-0.4 C789 677.6 789 677.7 789 677.6z M792.4 693.8c-0.2-0.9-0.5-2-1.1-2.3C791.5 692 791.7 693.4 792.4 693.8z M792.8 685.2 c0-0.2-0.2-0.4-0.2-0.4s0 0 0 0.2C792.4 685 792.6 685.2 792.8 685.2L792.8 685.2z M800.8 685c0-0.2 0.4-0.7 0.4-0.9l0 0 c-0.2 0.4-0.5 0.5-0.7 0.9C800.6 684.9 800.6 685 800.8 685z M815.8 699c0.5 0 1.1 0 1.4 0H817c-0.7 0-1.2-0.2-2-0.2 c-0.2 0-0.5 0-0.7 0.2C814.9 699 815.4 699 815.8 699z M818.6 655.4L818.6 655.4c-0.2 0.5-0.7 1.1-0.9 1.8 C818.4 657.1 818.6 656.2 818.6 655.4z M820 674.4c0-1.2-0.2-2.5-0.4-3.6c0.2 1.8 0 3.7 0.2 5.3C820 675.6 820 675.1 820 674.4z M820 689.9c-0.4-0.7-0.2-2.5-0.4-3.4v2c0 0.5 0 1.2 0 1.8C819.9 690.2 819.9 689.9 820 689.9z M821.3 663c0-1.6 0.4-2.9 0.4-4.3 c-0.4 0.9-0.5 2.1-0.5 3.4c0 0.5 0 1.1 0.2 1.4L821.3 663L821.3 663z M821.6 665c0 1.1 0 2.5 0.4 3.4 C822.2 667.3 822.2 665.7 821.6 665z M829.7 647.5c-0.5 0-1.4-0.2-2.1-0.2c-0.7 0-1.6 0-2.1 0.4 C826.6 647.5 828.6 647.7 829.7 647.5z"/><path d="M892.6 689.7c-1.4-3.6-1.1-4.5-5-4.5c-1.2 0-2.5 0-3.2 0c-0.9 0-1.8-0.4-2.7-0.4c-1.4 0-2.9 0.4-4.3 0.4 c-1.8 0-3.4-0.5-5.3-0.5c-1.4 0-2.5 0.2-3.9 0.2c-0.7 2.3-2.1 3.7-2.5 6.4c3.9 0 5 0 5 4.5c0 2.5-0.2 4.6-2.5 4.6c-1.1 0-2.1 0-3 0 c-2.3 0-3.6 0.7-5.3 0.7c-1.1 0-2-0.5-2.9-0.5c-1.4 0-4.5 0.4-5.9 0.4c-1.8 0-3-0.4-3.2-2c0-0.5 0.4-1.8 0.4-2.9 c0-1.8-0.5-2-0.5-3.4c0-1.1 1.1-1.2 2.3-1.2c0.9 0 1.8 0 2.7 0c2.7 0 2.5-2 3.4-3.4c0.5-1.1 1.4-2 2-3c0.4-0.7 0.5-1.8 0.9-2.5 c1.6-3.4 2.7-9.4 5.7-13.4c1.8-2.3 2.7-4.5 3.6-7.5c0.9-3.6 3.2-5.7 4.1-9.3c1.1-3.6 2.3-5.2 3.9-9.3c0.5-1.2 0.5-2.3 2-2.3 c0.5 0 0.9 0.2 1.2 0.2c0.5 0 0.7-0.4 1.2-0.4c2.3 0 2.7 3 3.4 4.8c0.9 2.3 3 4.3 4.3 9.1c0 0.4 0 0.9 0.2 1.2c0.4 1.8 3 3.4 3 5.5 c0 1.8 1.4 2.7 2 3.9c1.1 2 0.7 3.9 2.1 6.8c0.9 2 2.1 3.7 3 5.9c0.9 2.5 2.1 6.2 3.6 8.2c0.9 2 2.3 3.4 3 5c0.9 0 1.8 0 2.1 0.2 c0.4-0.2 0.9-0.2 1.2-0.2c2 0 3 2 3 3.9c0 1.1-0.5 1.2-0.5 3c0 0.5 0 0.9 0 1.4c0 1.1-0.2 1.6-2 1.6c-0.7 0-1.6-0.2-2.3-0.2 c-0.9 0-2 0.2-2.9 0.2c-1.8 0-3-0.5-4.3-0.5c-0.7 0-1.8 0.5-2.9 0.5c-0.9 0-1.2-0.7-2.1-0.7c-0.9 0-1.6 0.5-2.7 0.5 c-3.7 0-3.6-2.9-3.6-5.9c0-5 2-3.6 4.8-4.3C893.3 690.6 892.8 690 892.6 689.7z M854.6 694.7h-3c0 0.2 0 0.2 0 0.4 C852.8 695 853.9 695 854.6 694.7z M857.7 697.9C857.8 697.9 857.8 697.9 857.7 697.9C857.8 697.9 857.8 697.9 857.7 697.9z M857.8 697.9c0.4 0 0.7 0 1.1 0c1.1 0 2-0.4 2.9-0.5c-1.1 0-2.1 0.5-3.2 0.5H857.8z M864.4 683.8c-0.5 0.7-1.1 1.8-1.1 2.7 C863.7 685.8 864.4 684.7 864.4 683.8z M865.7 674.8c0 0.2-0.4 0.5-0.2 0.9C865.5 675.6 865.7 675.1 865.7 674.8z M866.2 697.3 c0.2 0 0.4 0 0.4-0.2c-0.2 0-0.7 0-0.9 0C865.9 697.3 866 697.3 866.2 697.3z M867.1 672.1c-0.2 0.4-0.7 0.7-0.7 1.2 C866.7 672.8 867.1 672.6 867.1 672.1z M870.3 679c0.4 0 0.9 0.2 1.2 0.2c0 0 0.2 0 0.4 0c-0.5 0-0.7-0.4-1.4-0.4 C870.3 678.8 870.3 679 870.3 679z M873.5 671.9c-0.5 1.6-1.4 2.7-2 4.1c0.9 0.2 1.8 0.2 2.5 0.2c1.2 0 2.7-0.2 3.9-0.2 c1.4 0 2.7 0.4 3.9 0.4c1.6 0 3 0 4.6 0c-0.4-0.9-0.4-1.8-0.7-2.7c-0.9-3.9-3.6-7.3-3.9-8.4c-0.4-1.1-0.5-2.1-0.9-3.2 c-0.2-0.4-1.6-3-1.6-3.4c0 0 0 0 0 0.2C876.7 663.4 874.9 667.7 873.5 671.9z M878.9 653.4c0 0 0-0.2 0-0.4c0 0.4-0.5 0.9-0.5 1.2 C878.3 654.1 878.9 653.9 878.9 653.4z M881.2 647.2c0.5 0.7 0.7 2 1.4 2.1C882.1 648.6 881.7 647.9 881.2 647.2z M883.3 650.9 c0.2 0.2 0 1.4 0.7 1.6C883.7 652 883.5 651.1 883.3 650.9L883.3 650.9z M885.3 682.2c0.2 0 0.5 0 0.7 0c-0.4-0.2-0.7-0.2-1.2-0.2 c-0.4 0-0.7 0-1.1 0.2C884.2 682 884.7 682.2 885.3 682.2z M884.9 664.1c0 0.4 0.2 1.1 0.5 1.2 C885.5 664.8 885.3 664.3 884.9 664.1z M888.8 672.3c0 0.2 0 0.4 0 0.4C889 672.6 889 672.3 888.8 672.3z M889.9 665.9 c0 0.7 0.4 0.9 0.5 1.4C890.5 666.8 890.3 666.2 889.9 665.9z M894 694.1c-0.7 0.4-1.6-0.2-1.8 0.4 C892.9 694.5 893.5 694.5 894 694.1z M892.9 674.1L892.9 674.1c0 0.2 0.2 1.1 0.5 1.1l0 0l-0.4-0.5 C893.1 674.4 892.9 674.1 892.9 674.1z M894.6 694.1h0.7c0 0 0-0.2-0.2-0.2C894.9 694 894.7 694.1 894.6 694.1z M900.6 689.9 c-0.7-1.4-1.4-2.7-2.3-3.9c0.2 1.1 0.9 1.6 1.2 2.5C899.7 689 900.1 689.5 900.6 689.9z M903.1 697.9c0.2 0 0.5 0 0.7-0.2 c-0.5 0-1.1-0.2-1.8-0.2c-0.5 0-1.1 0-1.4 0.2C901.5 697.9 902.4 697.9 903.1 697.9z M907 694.7h0.5 C907.3 694.7 907.3 694.7 907 694.7C907.2 694.5 907.2 694.5 907 694.7z"/><path d="M964.8 682.4c0.4 0.5 1.2 0.7 1.8 1.4c0.9 0.9 2.7 3.2 3 4.3c0.4 0.4 0.9 0.5 1.2 1.1c1.4 1.4 1.4 1.8 4.3 2.7h1.2 c1.6 0 3.6 0.9 3.6 2.5c0 0.4-0.2 0.9-0.2 1.2v0.9c0 5-0.9 5.3-7.7 5.3c-7.1 0-11.2-7-11.6-7.5l-1.4-2.7c-1.1-1.6-2.5-2.3-3.2-4.3 c-0.5-1.2-0.2-1.4-2-2.7c-1.1-0.7-0.9-1.1-2-1.1s-2.5 0.2-3.6 0.2c-0.7 0-1.4 0-2-0.4c-0.9 0.4-2 0.5-3 0.5 c-0.4 0.7-0.4 1.6-0.4 2.7c0 0.9 0 1.8 0 2.5c0 0.9 0 1.8-0.4 2.3c1.1 0.2 2.1 0.4 3.4 0.4c1.4 0 2.1-0.5 3-0.5 c1.1 0 2.1 0.9 2.1 2c0 0.5-0.2 1.4-0.2 2.3c0 1.6 0.4 3.6 0.4 4.3c0 0.9-0.7 1.1-1.4 1.1c-2 0-3.9-0.4-5.5-0.4 c-2.7 0-4.8 0.2-7.7 0.2c-0.9 0-2-0.2-2.7-0.2c-1.2 0-2.1 0.5-3.4 0.5c-2.3 0-4.8-0.7-4.8-3.4c0-0.9 0-1.8 0-2.5c0-0.5 0-1.2 0-1.8 c0-1.6 0.4-2.1 2.1-2.1c1.1 0 2.1 0.2 2.9 0.2c0.5 0 0.9-0.2 1.4-0.2c0-2.7-0.2-5.7-0.2-8.7c0-3.4 0.5-6.1 0.5-9.1 c0-1.6-0.5-3.2-0.5-4.6c0-0.5 0-1.1 0.2-1.6c0-0.7-0.2-1.6-0.2-2.3c0-2.5 0.2-5.5 0.2-8.2c0-1.6-0.5-3-0.5-4.6c0-0.4 0-0.7 0-1.1 c-2.3-0.5-6.1 0.4-6.2-2.1c0-0.7 0.4-1.6 0.4-2.9c0-0.9-0.5-2-0.5-2.9c0-1.4 0.9-1.8 2.1-1.8c0.9 0 2 0.2 2.9 0.2 c2 0 3.9-0.4 6.1-0.4c1.2 0 2.3 0.4 3.6 0.4c2.5 0 5-0.4 7.7-0.4c14.6 0 22.5 4.8 24.8 9.6c1.4 2.9 2.7 8 2.7 12.3 c0 4.8-1.6 9.3-4.6 12.5c-2 2-3.6 4.3-6.6 5C964.3 681.3 964.4 682 964.8 682.4z M929.1 644.7c0 0.2 0.4 0.2 0.5 0.2h0.4 C929.7 644.7 929.5 644.7 929.1 644.7z M930 698.2l-0.7-0.2v0.4C929.7 698.2 929.8 698.2 930 698.2z M934.7 644.7 c-0.7 0-1.6 0-2.1 0.2C933.2 644.8 934.1 645 934.7 644.7z M935.4 653.8c0-0.2 0-0.4 0-0.5v-0.2c0 0.2 0 0.4 0 0.5 C935.4 653.8 935.4 653.8 935.4 653.8z M935.7 688.1c0-1.2-0.2-2.3-0.4-3.7v2.9c0 0.9 0 1.8 0.2 2.3 C935.7 689 935.7 688.6 935.7 688.1z M936.1 665c0-0.5 0-1.1-0.4-1.4v0.5c0 0.9-0.2 1.8-0.2 2.5c0 0.2 0 0.5 0 0.7 C935.9 666.8 936.1 665.9 936.1 665z M942.1 697.9c-0.7 0-1.6-0.2-2.3-0.2c-0.7 0-1.2 0-1.8 0.4L942.1 697.9z M939.3 655.5V655 c-0.2 0.2-0.2 0.5-0.2 0.9c0 0.4 0 0.9 0.2 1.1C939.3 656.6 939.3 656.1 939.3 655.5z M939.5 650.7c0-0.7 0.2-1.6 0.2-2.1v-0.2 c-0.4 0.4-0.4 0.7-0.4 1.1C939.1 649.8 939.3 650.2 939.5 650.7z M941.1 676.5C941.1 676.5 941.3 676.5 941.1 676.5 c-0.2-0.4-0.4-0.7-0.7-1.1C940.5 676 940.9 676.5 941.1 676.5z M956.6 673.4c1.4-0.4 3 0 6.1-4.8c1.1-1.6 1.6-3.4 1.6-6.2 c0-6.1-4.8-9.8-7.8-10.7c-2.5-0.7-6.1-0.9-8.9-0.9c-1.6 0-3.2 0-4.5 0.4v0.2c0 0.7-0.2 1.6-0.2 2.1c0 1.1 0 2 0 3.2 c0 1.2-0.2 2.5-0.2 3.7c0 1.1 0.2 2.5 0.2 3.7c0 1.8-0.4 3.7-0.4 6.6c0 4.6 4.3 3.9 7.1 3.9c1.1 0 2.1 0 3.2-0.2 C954.3 674.4 955.3 673.7 956.6 673.4z M945.4 697.9c-0.4 0-0.9 0-1.4 0c-0.4 0-0.7 0-1.1 0.2h1.6 C944.6 697.9 945.4 697.9 945.4 697.9z M951.1 678.3c0.7 0 1.6 0 2.1-0.4c-0.5 0-1.1 0-1.6 0h-3 C949.3 678.1 950.2 678.3 951.1 678.3z M961.8 690.8L961.8 690.8c0.4 0.5 0.5 1.2 0.9 1.8C962.6 691.8 961.8 690.8 961.8 690.8z M963.7 685c0.2 0.2 0.5 0.7 0.7 0.7C964.3 685.6 964.1 685 963.7 685z M969.2 651.6c-1.1-1.8-2.5-3.4-4.5-3.9 c0.4 0.4 0.9 0.5 1.4 0.9C967.5 649.3 968.2 650.7 969.2 651.6z M966.7 658.4c0-0.2 0-0.4 0-0.5c0-1.4-0.7-2.1-1.6-2.7 C965.9 656.1 966.6 657.1 966.7 658.4z M967.3 669.4c-0.4 0.4-0.7 1.1-0.7 1.8v0.2C966.7 670.7 967.3 670 967.3 669.4z M968.2 666.6c0-0.2 0-0.5-0.2-0.9L968.2 666.6c-0.2 0.2-0.2 0.4 0 0.5C968.2 666.9 968.2 666.8 968.2 666.6z M975.7 698.2 c0 0 0.2-0.2 0.2-0.4l0 0C975.7 698.1 975.7 698.2 975.7 698.2L975.7 698.2z"/><path d="M1028.1 644.3c0-0.7-0.7-1.2-0.7-2c0-0.9 0.9-1.4 2.5-1.4c0.7 0 2 0.2 2.9 0.2c0.7 0 1.4 0 2 0c1.6 0 2.7 1.2 2.7 2.3 c0 1.2-0.5 2.5-0.5 3.4c0 1.8 0.5 3 0.5 5.2c0 1.2-0.5 2-0.5 2.9c0 0.5 0 1.2 0 1.8c0 1.6-0.7 2-2.1 2c-1.1 0-2.7-0.2-3.6-0.2 c-0.4 0.2-0.7 0.2-1.1 0.2c-2.9 0-2.9-4.3-3.4-5.3c-0.7-2.3-5.5-3.9-8.9-3.9c-2.7 0-8.2 2-8.2 5c0 1.2 0.9 2.5 0.9 3.7 c0 0.4 0 0.9 0 1.4c0 2.5 6.8 5 10.7 7.1c5.3 2.9 12.1 4.1 16.2 12.7c0.9 1.8 1.6 3.9 1.6 6.2c0 2-0.7 3.9-1.2 5.9 c-0.9 3-2.9 4.3-5.2 6.4c0 0.2 0 0.4 0 0.5c0 2.3-7 3.6-7.1 3.6c-1.2 0.5-2.7 0.9-4.3 0.9c-1.2 0-3.2 0-4.6-0.2 c-1.1-0.2-1.8-0.9-3-0.9c-3.7 0-5.3-2.3-6.1-3c-0.5-0.5-1.4-0.9-2-1.4c0 0.2 0 0.4 0 0.7c0 0.7 0.2 1.6 0.2 2.3 c0 0.9-0.2 1.4-1.4 1.4c-0.4 0-0.7 0-1.1-0.2c-0.9 0.2-2.3 0.4-3.4 0.4c-1.8 0-3.6-0.5-3.6-2.5c0-0.7 0.4-1.8 0.4-2.5 c0-0.5-0.2-1.2-0.2-2c0-1.2 0.2-2.7 0.2-3.7c0-1.6-0.9-1.6-0.9-3.4c0-3.4 0.2-5 3.4-5c1.1 0 2.3 0.2 3.4 0.2c0.5 0 1.1-0.2 1.6-0.2 c0.9 0.2 2 1.1 2 2.1c0 0.2 0 0.5-0.2 0.7c0.4 4.1 4.8 4.6 7 6.8c1.2 0.4 2.7 0.5 3.9 0.5c5.5 0 11.1-3.4 11.1-6.4 c0-0.9 0-1.8 0-2.5c0-0.4 0-0.7 0-1.1c-1.1-2.9-6.4-4.6-9.8-6.8c-1.8-1.1-2.9-1.6-8-4.1c-1.6-0.7-3.6-1.2-4.8-2.5 c-4.1-3.9-2.7-1.1-5.9-8.4c-0.5-1.1-1.1-2.9-1.1-3.9c0-3.4 2-7.5 2.5-8.6c2.7-5.5 10.3-7.7 10.3-7.8c0 0 1.2 0 1.8-0.2 c1.1-0.2 1.8-0.9 3.4-0.9c8.9 0 10.9 4.5 11.9 4.8C1028.1 644.5 1028.1 644.5 1028.1 644.3z M1000.6 685.9c-0.2 0-0.4 0.5-0.4 1.1 c0 0.2 0 0.4 0.2 0.5C1000.3 686.8 1000.4 686.5 1000.6 685.9z M1006.3 655.5c0 0.9 0.2 2 0.5 2.5 C1007 657.1 1006.7 656.4 1006.3 655.5z M1007 647.5c0.4 0 0.9-0.2 0.9-0.5c-0.4 0.2-0.9 0-1.1 0.4 C1006.9 647.3 1007 647.5 1007 647.5z M1009.7 645.6c-0.4 0.2-0.9 0.7-1.1 0.9L1009.7 645.6z M1008.6 666.6c0 0.4 0.4 0.7 0.5 0.7 C1009.2 666.9 1008.8 666.8 1008.6 666.6z M1014.2 666.1c0.2 0.2 0.5 0.7 1.1 0.7h0.2C1015.2 666.6 1014.7 666.2 1014.2 666.1z M1014.3 698.4c0.4 0.4 1.2 0.4 2 0.4c0.4 0 0.5 0 0.9 0C1016.5 698.4 1014.7 698.4 1014.3 698.4z M1014.7 671 c0.4 0 0.7 0.4 1.1 0.4C1015.4 671.4 1014.9 671 1014.7 671z M1019.3 643.1h-0.2c0.2 0 0.5 0.2 0.7 0.2h0.2 C1019.9 643.2 1019.7 643.1 1019.3 643.1z M1021.6 643.8c0 0.2 2 1.1 2.5 1.2C1023.6 644.5 1022.7 643.8 1021.6 643.8z M1026.1 672.1c0.5 0.2 0.9 0.9 1.8 0.9C1027.4 672.5 1026.6 672.3 1026.1 672.1z M1031.3 690.9 C1031.3 690.9 1031.1 690.8 1031.3 690.9c-0.2 0-0.2 0-0.2 0.2C1031.1 691.1 1031.3 691.1 1031.3 690.9z M1033.6 650.5 c0-0.5 0-1.2-0.2-1.6c0 1.4-0.2 2.7-0.2 4.1C1033.4 652.3 1033.6 651.4 1033.6 650.5z M1034.7 681.1c0 0.5 0.2 0.7 0.4 0.9 C1035 681.7 1034.8 681.3 1034.7 681.1z"/><path d="M1074.6 653.2c0 2 0.2 3.9 0.2 6.1v3.7c0 1.8 0 3.7 0.2 5.3c2 0 4.1-0.4 5.9-0.4c1.6 0 3 0.2 4.5 0.2 c1.1 0 2.1-0.2 3.2-0.2c2.9 0 5.3 0.5 7.5 0.5c1.6 0 2.9-0.4 4.1-0.4h1.2c0.7 0 1.4-0.4 2.1-0.4h0.2c0.4-1.8 0.4-3.7 0.4-5.9v-3.2 c0-1.8 0.2-3.4 0.2-5c0-1.4 0.2-3-2.1-3h-1.6c-1.2 0-3.6-0.9-3.6-2.5c0-0.7 0.4-1.1 0.4-2c0-1.6-0.5-2.9-0.5-4.1 c0-0.9 0.7-1.2 1.6-1.2c1.1 0 2.1 0.4 2.9 0.4c0.8 0 1.4-0.2 2-0.2c0.5 0 0.9 0.2 1.2 0.5c2-0.4 4.5-0.7 7-0.7 c1.6 0 2.9 0.4 4.1 0.4c1.1 0 1.8-0.4 2.7-0.4c1.4 0 2.7 0.9 2.7 2.3c0 1.2-0.4 2.7-0.4 3.9c0 0.7 0.2 1.4 0.2 2 c0 1.2-0.7 1.8-2.7 1.8c-0.7 0-1.6 0-2.3 0c-0.5 0-1.1 0-1.1 0.4c0 2-0.7 3.7-0.7 5.7c0 1.4 0.4 2.5 0.4 4.1c0 1.2-0.4 2.7-0.4 3.9 c0 1.1 0.9 1.2 0.9 2.5c0 1.1-0.4 3.6-0.9 4.5c0 6.2 0.4 12.3 0.4 18.9c0.4 0.4 1.1 0.5 1.8 0.5c0.7 0 1.4-0.2 2.1-0.2 c1.1 0 2.7 0.4 3 1.8c0 0.5-0.2 1.1-0.2 1.6c0 1.1 0.2 2.1 0.2 3.4c0 0.4 0 0.9-0.2 1.4c0 0.4 0.2 0.5 0.2 0.9 c0 0.9-0.7 1.4-1.6 1.4c-1.1 0-1.8-0.7-2.5-0.7c-1.2 0-2.3 0.5-3.9 0.5c-1.8 0-3.9 0-5.3-0.2c-0.7 0-1.2-0.4-2-0.5 c-0.5 0-1.2 0.2-2 0.4h-0.9c-1.2 0-2 0.5-3.4 0.5c-2 0-3-1.2-3-7.3c0-0.5 0-2.9 1.6-2.9c0.7 0 1.4 0.2 2 0.2c0.7 0 1.4-0.2 2.3-0.2 h0.7c0.2-2.5 0.5-5 0.5-7.8c0-2.5 0-4.6-0.7-6.6c-0.4 0-0.9-0.2-1.2-0.2c-0.9 0-2 0.2-2.9 0.2c-3.2 0-6.1-0.4-9.3-0.4 c-4.6 0-13.4-0.2-15.2 0.7c-0.4 2.7-0.5 5.7-0.5 8.7c0 1.8 0 3.4 0 5.2c3 0.2 6.6-0.5 6.6 2.7c0 3 0 7.1-2.3 7.1 c-0.9 0-1.6-0.4-2.7-0.4c-2.3 0-5 0.7-7.8 0.7c-1.6 0-2.9-0.5-4.1-0.5c-1.1 0-2.5 0.4-3.9 0.4c-2 0-3.2-0.9-3.2-3.6v-1.8 c0-0.5 0-1.1 0-2c0-2.3 0.5-2.7 2.7-2.7c1.2 0 2.9 0.2 3.6 0.4c0.2-1.2 0.2-2.5 0.2-3.7v-2.5c0-2.5 0.5-5.2 0.5-8v-2.5 c0-2.1 0.4-4.5 0.4-6.6c0-1.2-0.5-2.5-0.5-3.7v-2c0-2.3-0.4-5.2-0.4-8c0-1.4 0-2.7 0.2-3.9c-0.4 0-0.5 0-0.9 0h-0.9 c-0.4 0-0.7-0.2-1.1-0.4c-0.5 0-1.1 0.2-1.6 0.2c-1.2 0-2.3-0.9-2.3-2.7V646c0-1.4-0.5-1.6-0.5-3c0-1.8 0.7-2.5 2.9-2.5 c0.9 0 1.6 0.7 3 0.7c1.2 0 2.5-0.4 3.9-0.4c2.3 0 5.2 0.2 7.7 0.2c1.2 0 2.3 0 3.6 0c3.2 0 3.6 0.9 3.6 6.4c0 2 0 2.9-2 2.9 c-0.5 0-1.1 0-1.4 0h-1.6c-0.5 0-1.1 0-1.4 0C1074.6 651.3 1074.6 652.1 1074.6 653.2z M1065.5 644.3c0 0-0.5 0-0.9 0 c-0.7 0-2 0-2.3 0.2c0.2 0 0.2 0 0.2 0C1063.2 644.5 1065.5 644.5 1065.5 644.3z M1068 698.2h0.9c-1.2 0-2.3-0.4-3.6-0.4 c-0.4 0-0.9 0-1.2 0C1065.1 698.2 1066.6 698.2 1068 698.2z M1066 644.3l2 0.2c0.2-0.2 0.5-0.2 0.7-0.5c-0.7 0-1.4 0.2-2.3 0.2 L1066 644.3L1066 644.3z M1067.3 689c0-0.4 0-0.9 0-1.2c0-0.5 0-0.9 0-1.2V689z M1068.7 670.5c0-0.7-0.4-1.4-0.5-2.1 c0.2 1.1 0 2.3 0.4 3C1068.7 671.2 1068.7 670.9 1068.7 670.5z M1071.2 648.2h-0.4c0.2 0.7 0.2 1.4 0.2 2 C1071.2 649.8 1071 648.9 1071.2 648.2z M1071 653.9c0 0.5 0 0.9 0 1.4c0 0.7 0 1.4 0.2 2C1071.2 656.1 1071.2 654.8 1071 653.9z M1075.8 694.7c-0.2 0-0.4 0-0.5 0c0.2 0 0.5 0.2 0.7 0.2s0.4 0 0.4-0.2H1075.8z M1077.3 644.7L1077.3 644.7c0-0.4-0.2-0.4-0.2-0.4 h-0.2C1076.9 644.3 1076.9 644.7 1077.3 644.7z M1089.9 671.6c-1.1 0-2.3 0-3.4 0c0.9 0.2 2 0.2 3.2 0.2s2.5 0 3.6-0.4h-3.4 L1089.9 671.6L1089.9 671.6z M1102.8 644.8c-0.2 0-0.2 0-0.4 0l0 0C1102.4 644.8 1102.6 645 1102.8 644.8 C1102.8 645 1102.8 645 1102.8 644.8L1102.8 644.8z M1114.3 644h-1.4c-2.9 0-5.5 0.2-7.5 1.1C1107.9 644.3 1111.5 644.5 1114.3 644 z M1107.9 693.6v-0.2l0 0c0 0.4-0.5 0.4-0.5 0.7C1107.4 693.8 1107.6 693.6 1107.9 693.6z M1108.3 685.4c0-0.4 0-0.7-0.2-1.1v1.4 c0 0.5 0 0.9 0 1.2C1108.1 686.5 1108.3 686.1 1108.3 685.4z M1110.1 667.3v0.9c0 1.2 0 2.5 0.5 3.2 C1110.4 670.2 1110.4 668.5 1110.1 667.3z M1110.6 679c0 0 0-0.4 0-0.7c0-0.4 0-0.9 0-1.2c0 0.2 0 0.5 0 0.7c0 0.4 0 0.7 0 1.1V679 z M1117.7 695.7c0-0.2 0-0.7-0.2-0.9c-0.2 0.2-0.7 0-0.7 0.2C1117.2 695.2 1117.5 695.6 1117.7 695.7z"/><path d="M1179.9 689.7c-1.4-3.6-1.1-4.5-5-4.5c-1.2 0-2.5 0-3.2 0c-0.9 0-1.8-0.4-2.7-0.4c-1.4 0-2.9 0.4-4.3 0.4 c-1.8 0-3.4-0.5-5.3-0.5c-1.4 0-2.5 0.2-3.9 0.2c-0.7 2.3-2.1 3.7-2.5 6.4c3.9 0 5 0 5 4.5c0 2.5-0.2 4.6-2.5 4.6c-1.1 0-2.1 0-3 0 c-2.3 0-3.6 0.7-5.3 0.7c-1.1 0-2.1-0.5-2.9-0.5c-1.4 0-4.5 0.4-5.9 0.4c-1.8 0-3-0.4-3.2-2c0-0.5 0.4-1.8 0.4-2.9 c0-1.8-0.5-2.1-0.5-3.4c0-1.1 1.1-1.2 2.3-1.2c0.9 0 1.8 0 2.7 0c2.7 0 2.5-2 3.4-3.4c0.5-1.1 1.4-2 2-3c0.4-0.7 0.5-1.8 0.9-2.5 c1.6-3.4 2.7-9.4 5.7-13.4c1.8-2.3 2.7-4.5 3.6-7.5c0.9-3.6 3.2-5.7 4.3-9.3s2.3-5.2 4.1-9.3c0.5-1.2 0.5-2.3 2-2.3 c0.5 0 0.9 0.2 1.2 0.2c0.5 0 0.7-0.4 1.2-0.4c2.3 0 2.7 3 3.4 4.8c0.9 2.3 3 4.3 4.3 9.1c0 0.4 0 0.9 0.2 1.2c0.4 1.8 3 3.4 3 5.5 c0 1.8 1.4 2.7 2.1 4.1c1.1 2 0.7 3.9 2.1 6.8c0.9 2 2.1 3.7 3 5.9c0.9 2.5 2.1 6.4 3.6 8.2c0.9 2 2.3 3.4 3 5c0.9 0 1.8 0 2.1 0.2 c0.4-0.2 0.9-0.2 1.2-0.2c2 0 3 2 3 3.9c0 1.1-0.5 1.2-0.5 3c0 0.5 0 0.9 0 1.4c0 1.1-0.2 1.6-2 1.6c-0.7 0-1.6-0.2-2.3-0.2 c-0.9 0-2 0.2-2.9 0.2c-1.8 0-3-0.5-4.3-0.5c-0.7 0-1.8 0.5-2.9 0.5c-0.9 0-1.2-0.7-2.1-0.7c-0.9 0-1.6 0.5-2.7 0.5 c-3.7 0-3.6-2.9-3.6-5.9c0-5 2.1-3.6 4.8-4.3C1180.6 690.6 1180.1 690.2 1179.9 689.7z M1141.8 694.7h-3c0 0.2 0 0.2 0 0.4 C1140 695.2 1141.1 695.2 1141.8 694.7z M1144.8 697.9C1145 697.9 1145 697.9 1144.8 697.9C1145 698.1 1145 697.9 1144.8 697.9z M1145 698.1c0.4 0 0.7 0 1.1 0c1.1 0 2.1-0.4 2.9-0.5c-1.1 0-2.1 0.5-3.2 0.5H1145z M1151.8 683.8c-0.5 0.7-1.1 1.8-1.1 2.7 C1151.1 685.8 1151.6 684.9 1151.8 683.8z M1152.8 674.8c0 0.2-0.4 0.5-0.2 0.9C1152.7 675.6 1152.8 675.1 1152.8 674.8z M1153.6 697.5c0.2 0 0.4 0 0.4-0.2c-0.2 0-0.7 0-0.9 0C1153.2 697.5 1153.4 697.5 1153.6 697.5z M1154.3 672.1 c-0.2 0.4-0.7 0.7-0.7 1.2C1153.9 672.8 1154.3 672.6 1154.3 672.1z M1157.5 679c0.4 0 0.9 0.2 1.2 0.2c0 0 0.2 0 0.4 0 c-0.5 0-0.7-0.4-1.4-0.4C1157.5 678.8 1157.7 679 1157.5 679z M1160.9 671.9c-0.5 1.6-1.4 2.7-2.1 4.1c0.9 0.2 1.8 0.2 2.5 0.2 c1.2 0 2.7-0.2 4.1-0.2c1.4 0 2.7 0.4 3.9 0.4c1.6 0 3 0 4.6 0c-0.4-0.9-0.4-1.8-0.7-2.7c-0.9-3.9-3.6-7.3-4.1-8.6 c-0.4-1.1-0.5-2.1-0.9-3.2c-0.2-0.4-1.6-3-1.6-3.4c0 0 0 0 0 0.2C1164.1 663.4 1162.1 667.7 1160.9 671.9z M1166 653.4 c0 0 0-0.2 0-0.4c0 0.4-0.5 0.9-0.5 1.2C1165.7 654.1 1166 653.8 1166 653.4z M1168.5 647.2c0.5 0.7 0.7 2 1.4 2.1 C1169.4 648.6 1169.1 647.9 1168.5 647.2z M1170.5 650.7c0.2 0.2 0 1.4 0.7 1.6C1171 652 1170.8 651.1 1170.5 650.7L1170.5 650.7z M1172.6 682.2c0.2 0 0.5 0 0.7 0c-0.4-0.2-0.7-0.2-1.2-0.2c-0.4 0-0.7 0-1.1 0.2C1171.6 682.2 1172.1 682.2 1172.6 682.2z M1172.3 664.1c0 0.4 0.2 1.1 0.5 1.2C1172.6 664.8 1172.6 664.3 1172.3 664.1z M1176.2 672.3c0 0.2 0 0.4 0 0.4 C1176.4 672.6 1176.4 672.3 1176.2 672.3z M1177.3 665.9c0 0.7 0.4 0.9 0.5 1.4C1177.8 666.8 1177.6 666.2 1177.3 665.9z M1181.4 694.3c-0.7 0.4-1.6-0.2-1.8 0.4C1180.3 694.7 1181 694.7 1181.4 694.3z M1180.3 674.1L1180.3 674.1c0 0.2 0.2 1.1 0.5 1.1 l0 0l-0.4-0.5C1180.5 674.4 1180.3 674.1 1180.3 674.1z M1181.9 694.3h0.7c0 0 0-0.2-0.2-0.2 C1182.3 694.1 1182.1 694.3 1181.9 694.3z M1188 689.9c-0.7-1.4-1.4-2.7-2.3-4.1c0.2 1.1 0.9 1.6 1.2 2.5 C1187.2 689 1187.4 689.5 1188 689.9z M1190.5 698.1c0.2 0 0.5 0 0.7-0.2c-0.5 0-1.1-0.2-1.8-0.2c-0.7 0-1.1 0-1.4 0.2 C1188.8 697.9 1189.7 698.1 1190.5 698.1z M1194.4 694.7h0.5C1194.7 694.7 1194.7 694.7 1194.4 694.7 C1194.4 694.7 1194.6 694.7 1194.4 694.7z"/></g><g><path d="M854.4 854c4.1 7.1 2.1 16.2 18.5 16.2c1.2 0 2.1 0 3.4 0c3.6 0 7.1 2 7.1 7.5c0 2.7-0.5 5.5-0.5 8.2 c0 1.2 0.2 3.2 0.2 5.2c0 8.2-4.6 7.3-10.7 7.3c-1.8 0-4.1-0.9-6.1-0.9c-1.8 0-3.6 0.9-6.1 0.9c-9.3 0-10.3-5.9-18.2-18.5 c-4.3-6.8-7.5-11.6-15.5-23.9c-1.8-2.9-3-6.2-5.5-8.2c-1.8 1.2-5 1.8-8.2 1.8c-4.3 0-6.8-2.5-9.8-2.5c-1.2 0-3.6 3.4-3.6 5.5 c0 2.1 0.4 4.5 0.4 7.1c0 2.5 0 5.2 0 7.5c0 8 15.3-3.2 15.3 11.4c0 1.4 0 3.2 0 4.5c0 1.8 0 3.4 0 4.8c0 5.3-0.4 9.8-4.8 10 c-1.1 0-2.1-0.7-3.4-0.7c-2.9 0.5-6.1 2.9-9.6 2.9c-4.8 0-8.7-2.9-13.9-2.9c-5.9 0-8.9 2.9-16.4 2.9c-5.5 0-8.2-2.7-8.2-8.6 c0-2.9 0.5-6.1 0.5-9.3c0-4.1-1.6-5.2-1.6-7.3c0-3.9 11.9-4.6 16.8-4.6c0.2-2 0.9-4.1 0.9-6.2c0-5.5-1.1-11.9-1.1-18 c0-2.5 0.2-4.8 0.5-7.1c-0.4-2-1.2-3.6-1.2-5.5c0.4-2.7 1.2-3.4 1.2-7.1c0-23 0.2-49.4-0.9-71.7c-3.2-0.5-5.5-1.2-6.6-1.2 c-1.1 0-1.6 0.7-2.7 0.7c-3.2 0-5.5-3.2-5.5-8.2c0-1.8 0-3.9 0-5.9c0-2.7-0.5-6.1-0.5-8.9c0-2 0.5-3.6 2.7-3.6 c3.2 0 5.5 1.2 8.9 1.2c8.7 0 16.8-1.8 23.9-1.8c1.6 0 3.4 0 5.2 0.2c1.8 0 3.4 0 5.2 0c3.9 0 7.7 1.2 11.6 1.4 c6.6 0.7 13.7 0 19.8 1.4c7.1 1.8 16.4 4.8 22.5 10.5c11.9 11.2 15.2 24.6 15.5 26c0.9 3.4 2.9 4.8 2.9 10c0 4.5-0.2 8.9-0.4 13.4 c-0.2 4.8-2.1 8.9-2.1 13.9c0 0.9 0 2 0 2.9c0 12.5-6.8 18.7-11.8 25c-4.5 5.5-8.2 9.4-14.3 12.8 C848.9 848.9 852.3 850.8 854.4 854z M851.8 823.6c1.6-2.5 3.9-4.1 5-6.6c1.8-3.4 2.1-7.3 3-11.4c0.9-3.9 2.7-6.8 2.7-12.8 c0-2.7-0.2-5.3-0.2-8c0-2.9 0.2-6.1 0.2-8.9c0-7.1-2.9-14.1-6.1-18.9c-4.3-6.1-19.8-18.5-59-18.5c-2.7 0-5.5 0.2-8.2 0.2 c-1.2 0-2.5-0.7-3.6-0.7c-0.9 0-1.1 0.7-1.6 1.2c-2.9 0.5-5.9 0.9-9.1 0.9c-1.4 0-3.2-0.2-4.8-0.2c-1.4 0-2.5 0.2-2.7 2 c0 2.5 1.4 2.9 3.9 2.9c5 0 8.7-0.7 12.3-0.9c-0.9 1.8-1.1 3.9-1.1 6.1c0 1.4 0.2 2.9 0.4 4.6c1.2 13.9 1.8 30.3 1.8 46.7 c0 8.2-0.9 17.3-0.9 26.2c0 14.6 0.5 28.7 0.5 42.6c0 4.5-0.2 8.7-1.2 12.8c-2.7-0.2-5.7-0.2-8.9-0.2c-2.7 0-6.6-0.5-6.6 2.7 c0 1.8 1.4 2.1 3.4 2.1c3 0 5.7-0.5 7.5-0.5c7.3 0 13.7 2 22.5 2c2.1 0 4.3-0.5 4.3-2.5c0-3.2-13.2-2-17.8-3.4 c0.4-4.1 0.5-8.7 0.5-13.5c0-9.4-0.4-20-0.4-28.7c0.5 0.2 1.2 0.2 1.8 0.2c4.6 0 8.6-1.2 13.2-1.2c5.2 0 10.7 0.2 15.7 0.2 c3.4 0 6.6-0.2 9.1-1.8c1.2 1.8 1.4 4.1 2.1 6.1c2 4.5 5.9 7.3 8.6 10.9c3.6 8.6 11.9 14.8 16.4 25.5c3.2 8 6.6 8.2 17.1 8.2 c1.4 0 2.7-0.5 2.7-2.1c0-2.5-4.3-2.9-7.8-2.9c-1.2 0-2.7 0-3.6 0c-4.3 0-4.3-3.9-6.2-7.8c-4.8-8.9-9.8-14.8-15.3-23.5 c-3.2-5.2-8.9-8.2-9.4-15.5C840.7 835.5 847 830.3 851.8 823.6z M793.7 742.6c10.3 0 18.7 2.9 29.2 2.9c3 0 6.4 0 8.9 0.5 c10.2 2.1 27.1 11.4 27.1 29.4c0 2.7-0.2 5.5-0.2 8.2c0 3.4 0.2 6.2 0.2 8.9c0 5.5-1.6 7.5-2.5 11.4c-1.8 7.5-1.6 8.2-6.8 15.5 c-5.7 7.5-10.5 10.9-21 13.4c-3.2 0.7-5 2.5-8.9 2.5c-5.5 0-10.3-0.5-14.8-0.5c-5.7 0-11.1 0.7-17.3 0.9c0-1.8 0.2-3.6 0.2-5.3 c0-3.9-0.2-8-0.2-12.1c0-6.2 0.9-12.7 0.9-18.9c0-3.9-0.2-8-0.2-11.9c0-3.6 0-7.1 0-10.7c0-6.2-1.4-12.7-1.4-17.5 c0-1.2 0.2-2.1 0.2-3.4c-0.2-2-0.5-4.1-0.5-6.2c0-0.5 0-0.7 0-1.2c0.2-1.8 1.2-5.5 1.4-5.5C789.9 743 791.7 742.6 793.7 742.6z M807 821.9c3.2 0 5.9-0.9 9.8-0.9c1.6 0 3.4 0.2 5 0.2c8 0 16.6-4.5 20.5-8c5-4.6 6.2-18.9 6.2-28.7c0-26.2-28.7-29.6-31.9-29.9 c-2.5-0.2-4.8-0.2-7.3-0.2c-2.7 0-11.1 0.2-11.1 2c0 2.7 0.5 5.2 0.5 7.5c0 4.5-1.1 8.9-1.1 13.4c0 2.9 1.1 5.9 1.1 8.7 c0 0.7 0 1.2 0 2c0.4 4.5 1.6 8.2 1.6 12.1c0 3.6-1.4 6.6-1.4 11.2c0 5.9-0.5 10 6.8 10.7C806.3 821.9 806.7 821.9 807 821.9z"/><path d="M953.7 765.3c0 4.1 0.9 9.1 0.9 13.7c0 5.5-1.6 10-1.6 14.1c0 3.2 1.6 5 1.6 8.9c0 6.6-1.1 12.1-1.1 17.6 c0 9.4 1.4 18.4 1.4 27.5c0 8-0.5 15.9-0.9 23.4c0.9 0.5 1.8 0.5 2.9 0.5c2.1 0 4.6-0.7 6.8-0.7c2.7 0 6.2 2 6.2 7 c0 3.4-1.6 7-1.6 11.4c0 2 0.5 3.6 0.5 5.5c0 5.5-31.9 4.3-32.1 4.3c-2.9 0-5-1.4-7-1.4c-1.4 0-2.7 0.7-3.6 0.7 c-5 0-10.7 0.2-11.8-5c-0.7-3.4-0.4-7.3-0.7-11.8c-0.2-1.4-1.2-3.6-1.2-5.9c0-4.1 2.7-5 6.4-5c2.3 0 4.6 0.9 6.6 0.9 c1.6 0 2.3-0.9 3.7-0.9c0.2 0 0.2 0 0.4 0c0-7.5 0.4-15 0.4-22.3c0-5.5-1.2-10.2-1.2-15c0-1.6 0.2-3.4 0.2-5c0-2 0-4.1 0-6.1 c0-4.6 1.1-8.7 1.1-13.5c0-5-1.6-9.6-1.6-15.7c0-6.6 2-9.6 2-16.2c0-5-1.2-10.2-1.2-14.8c0-2.1 0.2-3.9 0.9-5.9 c-1.8 0-3.7 0.2-5.5 0.2c-5.9 0-10.7-1.2-10.7-10.9c0-2 0.2-4.3 0.2-6.6c0-1.6-0.2-3.6-0.2-5.5c0-4.3 3-6.1 6.2-6.1 c2.1 0 4.6 0.7 7 0.7c3.7 0 7.8-0.7 11.8-0.7c6.2 0 12.8 1.2 19.1 1.2c1.4 0 3.4-0.5 5.2-0.5c2.7 0 5.9 2.1 5.9 5.9 c0 0.9 0 2.1 0 2.9c0 1.2 0.4 2.1 0.4 3.6c0 2.1-0.5 4.1-0.5 6.8c0 1.4 0 2.9 0 4.1c0 4.3-1.8 5-4.8 5c-1.1 0-2.1-0.2-3.2-0.2 c-3.6 0-3.7 2-5.5 2c-0.2 0-0.5-0.2-0.9-0.2C954.3 760.3 953.7 762.9 953.7 765.3z M947 744.1c3 0 6.6-0.5 8.7-0.5 c0.5 0 1.4 0.2 2 0.2c1.1 0 1.8-0.5 1.8-2.1c0-2-1.6-2.5-3.4-2.5c-2.3 0-4.5 0.5-7 0.5c-4.6 0-10.2-0.7-14.8-0.7 c-0.4 0-11.9-0.7-11.9 3.2c0 1.6 0.9 2.1 1.8 2.1c2.1 0 4.6-0.7 6.8-0.7c1.6 0 3.4 0 5 0c1.1 0 2 0 3 0c0 0.5-0.2 0.7-0.2 1.2 c0 4.8 2.9 8 2.9 13.4c0 5.9-1.4 10.7-1.6 15.5c-0.5 10.3-0.2 21.7-0.2 32.8c0 15.7 0.9 31.2 0.9 45.8c0 7.7-1.8 14.3-1.8 21.2 c0 2.9 0.2 5.5 0.4 7.7c-2.9 0-4.6 0.9-7.5 0.9c-1.2 0-2.7 0-3.9 0c-2.7 0-4.8 0.2-5 2c0 2.5 2.3 3.2 5.3 3.2c7 0 9.1-1.6 14.1-1.6 c2.9 0 9.3 1.6 14.1 1.6c1.6 0 2.9-0.5 2.9-2.1c0-3.9-11.8-2.7-15.9-4.1c-0.4-2.5-0.5-5-0.5-8c0-7.3 1.6-15.2 1.6-24.4 c0-18.4-1.1-39.4-1.1-59c0-11.4 2-21 2-32.1c0-5.3-2.7-8.2-2.7-12.8c0-0.5 0-0.7 0.2-1.2C943.9 744.1 945.4 744.1 947 744.1z"/><path d="M1068.9 766.5c0 8.4 0.2 16.6 0 25.1c0 4.1-0.9 8-0.5 11.9c0.2 1.2 0.9 2.1 1.1 3.4c0.5 4.5 0.5 8.6 0.4 12.3 c-0.2 3.4-1.1 6.6-1.4 10.7c-0.2 3.4 0.9 8 1.2 11.9c0.2 4.5-0.2 9.1-0.5 13.7c-0.5 4.5 0.2 9.1 0.2 13.4c2.9 0.7 4.1 2.1 7 2.1 c1.4 0.2 2.9-0.7 4.5-0.5c2 0.5 4.1 2.7 4.6 4.8c0.5 3.2-0.4 7.1-0.2 11.2c0 3.9 1.4 9.1-0.4 10.7c-1.2 1.2-2.9 0.7-5 0.7 c-1.1 0-2.1 0.2-3.6 0.2c-2.5 0-4.6-0.9-6.2-0.9c-2.9 0.2-5 1.2-7.5 1.4c-2.5 0.5-5.5 0.7-8.2 0.5c-1.2-0.2-2.7-1.2-4.1-1.2 c-0.9-0.2-1.6 0.2-2.5 0c-2 0-3.6-0.5-5.5-0.5c-2.1 0.2-6.6 1.2-8.9 0.5c-1.8-0.5-3.6-2.9-4.1-4.5c-0.2-1.2 0.2-2.9 0.2-4.6 c0.2-2.1 0.2-4.8 0-6.8c-0.2-3.2-1.4-5.3-1.1-7.7c1.2-5.7 9.4-3.7 15.2-3.7c0-8.7 0.4-17.1 1.1-25.7c0.2-4.5 0.9-8.6 0.9-12.7 c0-4.5-0.5-8.6-0.4-13c0.2-2.1 0.5-2.9 0.5-4.6s-0.5-3.4-0.9-5.3c-0.4-4.6 0-10.5 0.2-15.3c0.2-1.8 0.4-2.9 0.4-4.5 c0-2.7-0.5-5.2-0.9-8c-0.2-2.5-0.2-5.2 0-7.7c0-1.2 0.4-2.1 0.4-3.2c0.2-3.4-0.5-6.6-0.5-9.4c-0.2-2.5 0.2-5.7-0.9-6.6 c-1.4-1.2-6.6 0-9.1-0.2c-2.9-0.2-4.6-1.2-7.3-0.9c-2.7 0-5 1.4-8.2 0.9c0.2 3.4-1.2 6.1-1.2 9.3c-0.2 2.9 1.8 6.1 0.2 8.6 c-1.1 1.4-3.2 1.2-5.9 1.2c-5.7 0.2-13.4 1.4-15.2-4.5c-0.9-2.5-0.5-8.6-0.4-12.7c0.2-2.1 0.9-4.1 0.9-6.6c0-4.1-0.4-8.4-0.5-11.4 c-0.2-4.6-0.4-10.3 1.8-11.4c1.6-0.9 5.5-0.2 7.8 0.2c2.9 0.5 5.9 0.2 7.7 0c3-0.2 5.7-0.2 8.2-0.5c6.6-0.9 13.2 0.5 20.1 0.5 c3.9 0 7.8 0.5 11.9 0.2c8.6-0.5 16.8-1.4 25.1-0.5c4.3 0.5 8.6 0.5 12.5 0.5c4.5 0 8.6-1.2 12.5-1.4c6.1-0.5 11.1 0.9 12.5 6.6 c0.9 3.9 0 9.8-0.2 14.6c-0.2 4.8-0.5 9.4-1.1 13.7c0 2.9 0.5 7.1-0.2 9.3c-1.2 3.4-5.7 3.2-10.2 3.2c-2.7 0-5 0.2-6.6-0.5 c-2-0.7-4.1-3.4-4.3-5.7c0-1.8 0.5-2.9 0.5-4.5c0.2-2.5 0-4.1-0.9-6.8c-3.2-1.4-7.3-1.4-11.6-1.4c-4.3 0-8.7 0-12.7 0 C1068.5 758.3 1068.9 762.6 1068.9 766.5z M1103.1 745.7c0 4.5-0.5 8.4-0.5 13.9c0 2.5 0.4 4.8 1.8 4.8c2.9 0 2.7-9.3 2.7-17.6 c0-3.4-0.4-6.6-2.1-7.8c-20 0.5-43.3 0.7-64.9 0.7c-7.5 0-13.7-2-21-2c-2 0-2.9 0.5-5.5 0.5c-1.1 0-2 0-2.9 0 c-4.1 0-4.5 1.2-4.5 4.1c0 3.2 0.4 6.8 0.4 10c0 2-0.2 4.1-0.2 5.9c0 2.7 0.4 4.6 1.8 4.6c2.7 0 2.1-6.4 2.1-9.3 c0-4.1-0.2-7.1-0.4-10.7c0.5 0 1.2 0.2 1.8 0.2c2.7 0 5.2-0.7 7.8-0.7c6.6 0 11.8 2 18 2c5.7 0 11.1-0.5 16.9-0.7 c-0.2 0.7-0.2 1.8-0.2 2.5c0 4.1 0.9 8.4 0.9 11.8c0 1.8 0 3.2 0 4.6c0.4 5.9 0.4 11.8 0.4 17.6c0 5.2 0 10.3 0 15.3 c0 6.1 0.2 12.3 0.2 18c0 10.7-1.2 21.2-1.2 32.1c0 7.7 0.2 15.2 0.2 22.8c0 4.5 0 9.1-0.2 13.7c-0.9 0.2-1.8 0.2-2.9 0.2 c-2.1 0-4.8-0.2-7.3-0.2c-0.5 0-6.4 0-6.4 4.1c0 0.9 1.4 2.5 2 2.5c1.8 0 2.5-2.5 7.8-2.5c9.4 0 12.3 2 19.6 2 c3.6 0 5.9-0.5 5.9-2.5c0-2-2-2.5-4.1-2.5c-1.2 0-2.7 0.2-3.4 0.2c-3.2 0-5-0.5-7.5-1.2c0-25.5 1.1-50.3 1.1-73.6 c0-4.8-0.2-9.4-0.2-14.3c0-3.7 0.4-7.1 0.4-10.7c0-13.9-0.9-27.5-1.4-40.1c8.6 0 17.3 0.2 26 0.2c6.4 0 12.7-0.2 18.7-0.5 C1103.1 744.2 1103.1 744.9 1103.1 745.7z"/><path d="M1183 764.9c0 4.1 0.9 9.3 0.9 13.9c0 5.5-1.6 10-1.6 14.1c0 3.2 1.6 5.2 1.6 9.1c0 6.6-1.1 12.1-1.1 17.8 c0 9.4 1.4 18.5 1.4 27.8c0 8-0.5 16-0.9 23.7c0.9 0.5 1.8 0.5 2.9 0.5c2.3 0 4.6-0.7 7-0.7c2.7 0 6.2 2 6.2 7.1 c0 3.4-1.6 7.1-1.6 11.4c0 2 0.5 3.7 0.5 5.5c0 5.5-32.4 4.5-32.6 4.5c-2.9 0-5.2-1.4-7.1-1.4c-1.4 0-2.7 0.7-3.7 0.7 c-5.2 0-10.9 0.2-11.9-5.2c-0.9-3.4-0.4-7.3-0.9-11.9c-0.2-1.4-1.2-3.7-1.2-5.9c0-4.1 2.7-5.2 6.6-5.2c2.5 0 4.6 0.9 6.8 0.9 c1.6 0 2.5-0.9 3.9-0.9c0.2 0 0.2 0 0.4 0c0-7.5 0.4-15.2 0.4-22.5c0-5.5-1.2-10.2-1.2-15.2c0-1.8 0.2-3.4 0.2-5.2c0-2 0-4.1 0-6.1 c0-4.6 1.1-8.7 1.1-13.7c0-5.2-1.6-9.8-1.6-15.9c0-6.6 2-9.8 2-16.4c0-5.2-1.2-10.2-1.2-14.8c0-2.1 0.2-3.9 0.9-5.9 c-1.8 0-3.9 0.2-5.7 0.2c-5.9 0-10.9-1.2-10.9-11.1c0-2 0.2-4.5 0.2-6.6c0-1.8-0.2-3.7-0.2-5.5c0-4.5 3-6.1 6.2-6.1 c2.3 0 4.6 0.7 7.1 0.7c3.9 0 8-0.7 11.9-0.7c6.2 0 13 1.2 19.4 1.2c1.4 0 3.4-0.5 5.3-0.5c2.7 0 5.9 2.1 5.9 5.9 c0 0.9 0 2.1 0 2.9c0 1.2 0.4 2.1 0.4 3.7c0 2.1-0.5 4.1-0.5 6.8c0 1.4 0 2.9 0 4.1c0 4.5-1.8 5.2-4.8 5.2c-1.1 0-2.3-0.2-3.2-0.2 c-3.7 0-3.9 2-5.7 2c-0.2 0-0.5-0.2-0.9-0.2C1183.5 759.7 1183 762.4 1183 764.9z M1176 743.5c3 0 6.8-0.5 8.9-0.5 c0.5 0 1.4 0.2 2 0.2c1.1 0 1.8-0.5 1.8-2.1c0-2-1.6-2.5-3.4-2.5c-2.5 0-4.5 0.5-7.1 0.5c-4.6 0-10.3-0.7-15.2-0.7 c-0.4 0-12.3-0.7-12.3 3.2c0 1.8 0.9 2.1 1.8 2.1c2.3 0 4.6-0.7 7-0.7c1.6 0 3.4 0 5.2 0c1.1 0 2 0 3 0c0 0.5-0.2 0.7-0.2 1.2 c0 4.8 2.9 8 2.9 13.4c0 5.9-1.4 10.7-1.6 15.5c-0.5 10.5-0.2 21.9-0.2 33.2c0 15.9 0.9 31.4 0.9 46.3c0 7.8-1.8 14.4-1.8 21.4 c0 2.9 0.2 5.5 0.4 7.8c-2.9 0-4.6 0.9-7.5 0.9c-1.2 0-2.7 0-4.1 0c-2.7 0-4.8 0.2-5.2 2c0 2.5 2.5 3.2 5.5 3.2 c7.1 0 9.1-1.8 14.3-1.8c2.9 0 9.4 1.8 14.3 1.8c1.6 0 2.9-0.5 2.9-2.1c0-3.9-11.9-2.7-16-4.1c-0.4-2.5-0.5-5.2-0.5-8 c0-7.3 1.6-15.3 1.6-24.6c0-18.5-1.1-39.8-1.1-59.5c0-11.4 2-21.2 2-32.4c0-5.3-2.7-8.2-2.7-12.8c0-0.5 0-0.7 0.2-1.2 C1173 743.5 1174.4 743.5 1176 743.5z"/></g><g><path d="M825.4 334.9c0 2.3 0.5 4.6 0.5 7.1v3c0 1.6 0 3 0.2 4.5c0.2 1.2 0.5 2.5 0.5 4.1l-0.4 1.6c0 2 0.7 3.7 0.7 6.2 c0 1.6-0.4 3.2-0.4 4.8c0 2 0 5.2 1.8 5.2c0.9 0 1.8-0.2 2.7-0.2c1.2 0 3.2 1.1 3.2 3.7c0 2.1 0.2 6.2-1.8 6.2 c-0.7 0-1.8-0.4-2.5-0.4c-3.6 0-8.7 0.5-12.5 0.5c-0.9 0-1.8 0-2.5 0c-1.2 0-2.1 0.5-3.2 0.5c-1.2 0-2.7-0.9-2.7-2.9 c0-1.1 0.4-2.5 0.5-3.6c0-0.9 0-3.9 0.7-4.5c0.7-0.4 3.2-0.5 4.8-0.5c0.2 0 0.5 0 0.9 0c0-4.8 0.2-10.2 0.2-15.2c0-3 0-5.9-0.4-8.7 c-3 4.5-5.3 10.2-7.1 15c-0.5 1.4-1.1 2.7-2 3.6c-1.6 2-1.1 2.1-2.3 5.2c-0.5 1.4-1.6 2.5-2.1 3.7c-1.2 3-1.4 7-7.1 7 c-4.1 0-5.2-5.9-5.2-6.1c-0.2-0.7-1.1-1.1-1.4-1.6c-0.7-1.4-0.9-3.2-1.6-4.8c-0.4-0.9-1.2-1.6-1.8-2.5c-2.5-4.5-3.9-8.4-5-10.7 c-1.2-2.3-2.9-6.8-5-9.1c-0.2 5.5-0.9 11.4-0.9 17.1c0 1.6 0 7.3 1.1 7.3c0.7 0 1.6 0 2.3 0c1.8 0 4.1 1.1 4.1 3v1.1 c0 0.4 0.4 1.1 0.4 1.8c0 2.1 0 3.9-2 3.9h-0.9c-1.1 0-2.3 0-3.2 0c-2.9 0-5.9-0.4-8.6-0.4c-1.1 0-2 0.4-2.9 0.4 c-0.5 0-1.1 0-1.8 0c-0.9 0-1.6 0.2-2.5 0.2c-1.8 0-2.9-0.9-2.9-3.4c0-1.4 0.5-2.5 0.5-3.2c0-0.5-0.4-1.4-0.4-2.1 c0-1.1 1.1-1.2 2.9-1.2c1.4 0 2.5 0.4 3.2 0.4c0.7 0 0.5-0.4 1.1-0.5c0-0.5 0-1.1 0-1.6c0-3.7 0.5-7.7 0.5-11.4c0-2 0-3.7 0-5.7 c0-4.8 0-10 0.5-14.8c0-0.9 0-1.8 0-2.7v-2.1c0-0.7 0-1.4 0-2.1c-0.5 0-0.9-0.2-1.4-0.2c-1.4 0-2.7 0.4-3.7 0.4 c-1.4 0-3.4-0.5-3.4-2.7c0-0.7 0.4-1.4 0.4-2.1s-0.7-2.3-0.7-3.4s0.4-1.8 2.3-1.8c1.6 0 3.4 0.2 4.8 0.2s3.2-0.2 4.6-0.2 c3.9 0 4.6 1.8 6.2 5.7c0.4 0.7 1.1 1.4 1.4 2.3c0.5 1.2 1.1 2.7 2 3.7c2.1 3 1.6 4.1 4.6 8.4c0.9 1.8 2.7 3 3.2 5.2 c0.9 4.5 3.6 5.5 7 14.3c0.2 0.7 1.2 2.9 2.1 3.6c0.9-0.9 1.8-1.8 2.7-2.9c1.2-1.6 2.1-4.3 3-6.2c1.2-2.7 2.7-5.3 4.1-8 c2-3.6 4.1-7.5 5.5-10.5c1.8-3.9 3.7-7.3 6.1-12.1c1.6-2.7 2-3.6 6.8-3.9c3 0 10 0.4 10 2.9c0 0.4-0.2 0.5-0.2 1.2v0.9 c0 0.7-0.2 1.8-0.2 2.5v1.2c0 1.1-0.5 1.2-1.8 1.2c-0.7 0-1.4 0-2-0.2c-1.4 0-2.7 0.2-3.7 0.2C825.9 331.5 825.4 333.1 825.4 334.9 z M762.3 377.5c0.2 0 0.5 0 0.9 0c-0.7 0-1.1-0.4-1.8-0.5c0 0.2 0 0.4 0 0.5H762.3z M765.7 326.7c0.4 0 0.7 0 0.9 0 c-0.4 0-0.9 0-1.4 0s-0.9 0-1.1 0.2h1.6V326.7z M771.4 355.4c-0.2 0.9-0.4 2.1-0.4 3.4c0 0.7 0 1.6 0 2.1 C771 358.9 771.2 357 771.4 355.4z M773 341.3c0.2 0 0.4 0 0.5 0c0 0 0 0 0.2 0c-0.2-0.2-0.5-0.4-0.9-0.5L773 341.3L773 341.3z M777.6 337.2c0 0.7 0.5 1.6 1.2 1.8C778.5 338.4 778.2 337.7 777.6 337.2z M778.3 373.9c0 0 0 0-0.2 0h-0.2 C778.2 373.9 778.2 374.1 778.3 373.9L778.3 373.9z M786 351.6c-0.5-0.5-0.7-1.4-1.2-2C785.1 350.4 785.3 351.4 786 351.6z M787.6 363.2c0.5 1.1 1.1 2.5 1.8 3.2C788.8 365.3 788 363.7 787.6 363.2z M789 356.8c0 0 0-0.2-0.2-0.4 C788.8 356.6 789 356.8 789 356.8z M792.4 373c-0.2-0.9-0.5-2-1.1-2.5C791.5 371.2 791.7 372.6 792.4 373z M792.8 364.3 c0-0.2-0.2-0.4-0.2-0.4s0 0 0 0.2C792.4 364.3 792.6 364.3 792.8 364.3L792.8 364.3z M801 364.3c0-0.2 0.4-0.7 0.4-0.9l0 0 c-0.2 0.4-0.5 0.5-0.7 0.9C800.8 364.1 800.8 364.3 801 364.3z M815.9 378.2c0.5 0 1.1 0 1.4 0h-0.2c-0.7 0-1.2-0.2-2-0.2 c-0.2 0-0.5 0-0.7 0.2C815.1 378.2 815.6 378.2 815.9 378.2z M818.8 334.5L818.8 334.5c-0.2 0.5-0.7 1.1-0.9 1.8 C818.6 336.1 818.8 335.2 818.8 334.5z M820.2 353.6c0-1.2-0.2-2.7-0.4-3.6c0.2 1.8 0 3.7 0.2 5.5 C820.2 354.6 820.2 354.1 820.2 353.6z M820.2 369.1c-0.4-0.7-0.2-2.5-0.4-3.4v2c0 0.5 0 1.2 0 1.8 C820 369.4 820 369.1 820.2 369.1z M821.5 342c0-1.6 0.4-2.9 0.4-4.3c-0.4 0.9-0.5 2.3-0.5 3.4c0 0.5 0 1.1 0.2 1.4V342H821.5z M821.8 344.1c0 1.1 0 2.5 0.4 3.4C822.4 346.3 822.4 344.8 821.8 344.1z M829.8 326.5c-0.5 0-1.4-0.2-2.1-0.2 c-0.7 0-1.6 0-2.1 0.4C827 326.5 828.8 326.7 829.8 326.5z"/><path d="M892.4 368.4c-1.4-3.6-1.1-4.5-5-4.5c-1.2 0-2.5 0-3.2 0c-0.9 0-1.8-0.4-2.7-0.4c-1.4 0-2.9 0.4-4.1 0.4 c-1.6 0-3.2-0.5-5.2-0.5c-1.4 0-2.5 0.2-3.9 0.2c-0.7 2.3-2.1 3.7-2.5 6.2c3.7 0 5 0 5 4.3c0 2.5-0.2 4.6-2.5 4.6c-1.1 0-2.1 0-3 0 c-2.3 0-3.4 0.7-5.2 0.7c-1.1 0-2-0.5-2.9-0.5c-1.4 0-4.5 0.4-5.7 0.4c-1.8 0-3-0.4-3.2-2c0-0.5 0.4-1.6 0.4-2.9 c0-1.6-0.5-2-0.5-3.2c0-1.1 1.1-1.2 2.3-1.2c0.9 0 1.8 0 2.7 0c2.7 0 2.5-1.8 3.2-3.4c0.5-1.1 1.4-2 1.8-3c0.4-0.7 0.5-1.6 0.9-2.5 c1.6-3.2 2.7-9.3 5.5-13.2c1.8-2.3 2.7-4.3 3.4-7.3c0.9-3.4 3-5.5 4.1-9.1c1.1-3.4 2.3-5 3.9-9.1c0.5-1.2 0.5-2.3 1.8-2.3 c0.5 0 0.9 0.2 1.2 0.2c0.5 0 0.7-0.4 1.2-0.4c2.3 0 2.7 3 3.2 4.8c0.9 2.3 2.9 4.1 4.1 8.9c0 0.4 0 0.9 0.2 1.2 c0.4 1.6 3 3.4 3 5.3c0 1.6 1.4 2.7 2 3.9c1.1 2 0.7 3.9 2.1 6.6c0.9 2 2.1 3.6 2.9 5.7c0.9 2.5 2.1 6.2 3.6 8 c0.9 1.8 2.3 3.4 2.9 5c0.9 0 1.6 0 2.1 0.2c0.4-0.2 0.9-0.2 1.2-0.2c1.8 0 2.9 1.8 2.9 3.7c0 1.1-0.5 1.2-0.5 3c0 0.5 0 0.9 0 1.4 c0 1.1-0.2 1.4-1.8 1.4c-0.7 0-1.4-0.2-2.3-0.2s-1.8 0.2-2.9 0.2c-1.6 0-3-0.5-4.3-0.5c-0.7 0-1.8 0.5-2.9 0.5 c-0.9 0-1.2-0.7-2.1-0.7c-0.9 0-1.6 0.5-2.7 0.5c-3.6 0-3.4-2.9-3.4-5.7c0-4.8 2-3.6 4.8-4.1C892.9 369.3 892.6 368.9 892.4 368.4z M855 373.2h-2.9c0 0.2 0 0.2 0 0.4C853.2 373.7 854.3 373.7 855 373.2z M858 376.4C858.2 376.4 858.2 376.4 858 376.4 C858.2 376.4 858.2 376.4 858 376.4z M858.2 376.4c0.4 0 0.7 0 1.1 0c1.1 0 2-0.4 2.9-0.5c-1.1 0-2.1 0.5-3.2 0.5H858.2z M864.8 362.7c-0.5 0.7-1.1 1.6-1.1 2.7C864.1 364.4 864.6 363.6 864.8 362.7z M865.9 353.9c0 0.2-0.4 0.5-0.2 0.9 C865.7 354.6 865.9 353.9 865.9 353.9z M866.6 375.9c0.2 0 0.4 0 0.4-0.2c-0.2 0-0.7 0-0.9 0C866.2 375.9 866.4 375.9 866.6 375.9z M867.3 351.1c-0.2 0.4-0.7 0.7-0.7 1.2C866.9 352 867.3 351.8 867.3 351.1z M870.5 357.9c0.4 0 0.9 0.2 1.2 0.2c0 0 0.2 0 0.4 0 c-0.5 0-0.7-0.4-1.4-0.4C870.5 357.9 870.5 357.9 870.5 357.9z M873.7 351.1c-0.5 1.6-1.4 2.7-2 4.1c0.9 0.2 1.6 0.2 2.5 0.2 c1.2 0 2.7-0.2 3.9-0.2c1.4 0 2.7 0.4 3.9 0.4c1.4 0 3 0 4.5 0c-0.4-0.9-0.4-1.6-0.7-2.7c-0.9-3.7-3.4-7.1-3.9-8.4 c-0.4-1.1-0.5-2.1-0.9-3.2c-0.2-0.4-1.6-3-1.6-3.4c0 0 0 0 0 0.2C876.7 342.5 874.9 346.8 873.7 351.1z M878.9 332.9 c0 0 0-0.2 0-0.4c0 0.4-0.5 0.9-0.5 1.2C878.3 333.6 878.9 333.3 878.9 332.9z M881.2 326.8c0.5 0.7 0.7 1.8 1.4 2.1 C882.1 328.3 881.7 327.4 881.2 326.8z M883.1 330.4c0.2 0.2 0 1.4 0.7 1.4C883.7 331.5 883.5 330.6 883.1 330.4L883.1 330.4z M885.1 361.1c0.2 0 0.5 0 0.7 0c-0.4-0.2-0.7-0.2-1.2-0.2c-0.4 0-0.7 0-1.1 0.2C884 360.9 884.6 361.1 885.1 361.1z M884.9 343.4 c0 0.4 0.2 1.1 0.5 1.2C885.3 344.1 885.1 343.6 884.9 343.4z M888.7 351.4c0 0.2 0 0.4 0 0.4C888.8 351.8 888.8 351.4 888.7 351.4 z M889.7 345.2c0 0.7 0.4 0.9 0.5 1.4C890.3 345.9 890.1 345.4 889.7 345.2z M893.7 372.8c-0.7 0.4-1.6-0.2-1.8 0.4 C892.8 373.2 893.3 373.2 893.7 372.8z M892.6 353.2L892.6 353.2c0 0.2 0.2 1.1 0.5 1.1l0 0l-0.4-0.5 C892.8 353.6 892.8 353.2 892.6 353.2z M894.2 372.8h0.7c0 0 0-0.2-0.2-0.2C894.6 372.6 894.4 372.8 894.2 372.8z M900.3 368.5 c-0.7-1.4-1.4-2.7-2.3-3.9c0.2 1.1 0.9 1.6 1.2 2.5C899.4 367.7 899.7 368.2 900.3 368.5z M902.8 376.6c0.2 0 0.5 0 0.7-0.2 c-0.5 0-1.1-0.2-1.6-0.2s-1.1 0-1.4 0.2C901.1 376.4 901.9 376.6 902.8 376.6z M906.5 373.2h0.7c-0.2 0-0.2 0-0.4 0 C906.7 373.2 906.7 373.2 906.5 373.2z"/><path d="M965.5 361.8c0.5 0.5 1.2 0.7 1.8 1.4c1.1 0.9 2.9 3.2 3.2 4.5c0.5 0.4 0.9 0.5 1.4 1.1c1.6 1.4 1.4 1.8 4.6 2.9h1.2 c1.8 0 3.7 0.9 3.7 2.7c0 0.4-0.2 0.9-0.4 1.2v0.9c0 5.2-0.9 5.5-8.2 5.5c-7.5 0-11.9-7.1-12.3-7.7l-1.6-2.7 c-1.1-1.6-2.7-2.5-3.4-4.5c-0.5-1.2-0.2-1.4-2.1-2.7c-1.1-0.7-0.9-1.1-2.1-1.1c-1.2 0-2.7 0.2-3.7 0.2c-0.9 0-1.4 0-2-0.4 c-0.9 0.4-2 0.5-3.2 0.5c-0.4 0.7-0.5 1.6-0.5 2.9c0 0.9 0.2 1.8 0.2 2.7s-0.2 1.8-0.4 2.5c1.1 0.2 2.3 0.4 3.6 0.4 c1.4 0 2.3-0.5 3.2-0.5c1.1 0 2.3 0.9 2.3 2.1c0 0.5-0.4 1.4-0.4 2.5c0 1.6 0.5 3.6 0.5 4.5c0 0.9-0.7 1.1-1.6 1.1 c-2.1 0-4.1-0.4-5.9-0.4c-2.9 0-5 0.2-8.2 0.2c-1.1 0-2-0.2-2.9-0.2c-1.2 0-2.3 0.5-3.6 0.5c-2.5 0-5-0.7-5-3.6 c0-0.9 0.2-2 0.2-2.5s-0.2-1.2-0.2-1.8c0-1.6 0.4-2.3 2.3-2.3c1.1 0 2.3 0.2 3 0.2c0.5 0 0.9-0.2 1.4-0.2c-0.2-2.7-0.2-5.9-0.2-8.9 c0-3.4 0.7-6.4 0.7-9.4c0-1.6-0.5-3.4-0.5-4.8c0-0.5 0.2-1.1 0.4-1.6c-0.2-0.7-0.2-1.6-0.2-2.3c0-2.7 0.4-5.7 0.4-8.6 c0-1.6-0.5-3-0.5-4.8c0-0.4 0-0.7 0.2-1.1c-2.5-0.5-6.4 0.4-6.8-2.3c0-0.7 0.4-1.6 0.4-2.9c-0.2-0.9-0.5-2.1-0.5-3 c0-1.4 1.1-1.8 2.3-1.8c1.1 0 2.1 0.2 3 0.2c2.1 0 4.1-0.4 6.4-0.4c1.4 0 2.5 0.4 3.7 0.4c2.7 0 5.2-0.4 8-0.4 c15.5 0 23.7 5 26.4 10c1.4 2.9 2.9 8.4 2.9 12.8c0 5-1.8 9.6-5 12.8c-2 2-3.7 4.5-7 5.2C965 360.7 965.1 361.4 965.5 361.8z M927.7 322.7c0 0.2 0.4 0.2 0.7 0.2h0.2C928.2 322.9 928.1 322.7 927.7 322.7z M928.8 378.2l-0.9-0.2v0.4 C928.2 378.4 928.6 378.4 928.8 378.2z M933.6 322.7c-0.9 0-1.8 0-2.3 0.2C932.2 323.1 933.1 323.1 933.6 322.7z M934.3 332.4 c0-0.2 0.2-0.4 0.2-0.5c0 0 0-0.2-0.2-0.2c0 0.2-0.2 0.4-0.2 0.5C934.3 332.2 934.3 332.2 934.3 332.4z M934.7 367.7 c0-1.2-0.4-2.5-0.4-3.7v2.9c0 0.9 0 1.8 0.2 2.5C934.7 368.7 934.7 368.2 934.7 367.7z M935 344c0-0.5-0.2-1.1-0.4-1.4v0.5 c0 0.9-0.2 1.8-0.2 2.5c0 0.2 0 0.5 0.2 0.7C934.8 345.7 935 344.8 935 344z M941.4 377.8c-0.9 0-1.8-0.2-2.5-0.2 c-0.7 0-1.4 0-2 0.4L941.4 377.8z M938.6 334.1v-0.5c-0.2 0.2-0.4 0.5-0.4 0.9s0.2 0.9 0.2 1.1 C938.6 335.2 938.6 334.7 938.6 334.1z M938.6 329.2c0-0.7 0.2-1.6 0.2-2.1v-0.2c-0.4 0.4-0.5 0.7-0.5 1.1 C938.4 328.1 938.6 328.6 938.6 329.2z M940.4 355.7C940.4 355.7 940.5 355.7 940.4 355.7c-0.4-0.4-0.5-0.7-0.7-1.1 C939.8 355.2 940.2 355.7 940.4 355.7z M956.8 352.7c1.6-0.4 3.2 0 6.6-5c1.1-1.6 1.6-3.6 1.6-6.4c0-6.2-5-10.2-8.4-11.1 c-2.7-0.7-6.4-0.9-9.4-0.9c-1.8 0-3.4 0-4.6 0.4v0.2c0 0.7-0.4 1.6-0.4 2.3c0 1.1 0.2 2.1 0.2 3.2c0 1.2-0.4 2.5-0.4 3.9 c0 1.1 0.2 2.5 0.2 3.9c0 1.8-0.4 3.7-0.4 7c0 4.8 4.6 4.1 7.7 4.1c1.2 0 2.3 0 3.4-0.2C954.3 353.6 955.5 352.9 956.8 352.7z M944.8 377.8c-0.5 0-1.1 0-1.6 0c-0.4 0-0.9 0-1.1 0.2h1.6C944.1 377.8 944.8 377.8 944.8 377.8z M951.1 357.5 c0.9 0 1.8 0 2.3-0.4c-0.5 0-1.2 0-1.8 0h-3.2C949.1 357.5 950 357.5 951.1 357.5z M962.3 370.5L962.3 370.5 c0.4 0.5 0.5 1.2 0.9 1.8C963.2 371.6 962.3 370.5 962.3 370.5z M964.4 364.6c0.4 0.2 0.5 0.7 0.9 0.7 C965 365.2 964.8 364.6 964.4 364.6z M970.3 330c-1.1-1.8-2.7-3.4-4.6-4.1c0.4 0.4 1.1 0.5 1.4 0.9 C968.4 327.7 969.1 329.2 970.3 330z M967.6 337c0-0.2 0.2-0.4 0.2-0.5c0-1.4-0.7-2.3-1.8-2.9C966.7 334.7 967.3 335.8 967.6 337z M968.2 348.4c-0.5 0.4-0.9 1.1-0.9 1.8v0.2C967.6 349.8 968.2 349.1 968.2 348.4z M969.1 345.6c0-0.2-0.2-0.5-0.2-0.9v0.9 c0 0.2 0 0.4 0.2 0.4C969.1 345.9 969.1 345.7 969.1 345.6z M977.1 378.4c0.2 0 0.2-0.2 0.2-0.4l0 0 C977.1 378 977.1 378.2 977.1 378.4L977.1 378.4z"/><path d="M1028.4 322.4c0-0.7-0.7-1.2-0.7-2.1c0-0.9 0.9-1.4 2.5-1.4c0.7 0 2 0.4 2.9 0.4c0.7 0 1.4-0.2 2-0.2 c1.6 0 2.7 1.2 2.7 2.5c0 1.4-0.5 2.7-0.5 3.6c0 2 0.5 3.2 0.5 5.5c0 1.4-0.5 2-0.5 3c0 0.7 0 1.2 0 2c0 1.6-0.7 2.1-2.1 2.1 c-1.1 0-2.7-0.4-3.7-0.4c-0.4 0.2-0.7 0.4-1.1 0.4c-2.9 0-2.9-4.5-3.4-5.7c-0.7-2.3-5.7-4.1-9.1-4.1c-2.7 0-8.4 2.1-8.4 5.2 c0 1.4 0.9 2.5 0.9 3.9c0 0.5 0 1.1 0 1.4c0 2.7 7 5.2 11.1 7.3c5.3 3 12.5 4.3 16.8 13.2c0.9 2 1.6 4.1 1.6 6.4 c0 2.1-0.7 4.1-1.2 6.2c-0.9 3.2-2.9 4.5-5.2 6.6c0 0.2 0 0.4 0 0.5c0 2.5-7.1 3.7-7.3 3.7c-1.2 0.5-2.7 0.9-4.3 0.9 c-1.2 0-3.2-0.2-4.6-0.4c-1.1-0.2-1.8-0.9-3-0.9c-3.9 0-5.3-2.5-6.2-3.2c-0.5-0.7-1.4-0.9-2-1.4c0 0.2 0 0.5 0 0.7 c0 0.7 0.2 1.8 0.2 2.5c0 0.9-0.4 1.6-1.4 1.6c-0.4 0-0.7-0.2-1.1-0.4c-0.9 0.2-2.3 0.5-3.6 0.5c-1.8 0-3.6-0.5-3.6-2.7 c0-0.9 0.4-1.8 0.4-2.7c0-0.7-0.2-1.2-0.2-2c0-1.4 0.2-2.9 0.2-3.9c0-1.6-0.9-1.6-0.9-3.6c0-3.6 0.2-5.2 3.6-5.2 c1.1 0 2.3 0.4 3.4 0.4c0.7 0 1.1-0.2 1.6-0.2c0.9 0.2 2 1.2 2 2.1c0 0.4 0 0.5-0.4 0.9c0.4 4.3 5 4.8 7.1 7 c1.2 0.4 2.7 0.5 4.1 0.5c5.7 0 11.4-3.6 11.4-6.6c0-1.1 0-2 0-2.7c0-0.4 0-0.9 0-1.1c-1.1-3-6.6-4.8-10.2-7.1 c-1.8-1.2-2.9-1.6-8.2-4.3c-1.6-0.9-3.7-1.2-5-2.5c-4.3-4.1-2.7-1.2-6.1-8.7c-0.5-1.2-1.1-3-1.1-4.1c0-3.6 2-7.8 2.5-8.9 c2.9-5.9 10.5-8 10.5-8.2c0 0 1.2-0.2 1.8-0.2c1.1-0.4 1.8-0.9 3.6-0.9c9.3 0 11.2 4.6 12.3 5 C1028.4 322.6 1028.4 322.4 1028.4 322.4z M1000.1 365.7c-0.2 0-0.4 0.7-0.4 1.1c0 0.4 0 0.5 0.2 0.5 C999.7 366.6 999.9 366.2 1000.1 365.7z M1006 334.1c0 1.1 0.2 2.1 0.5 2.7C1006.7 335.6 1006.3 334.9 1006 334.1z M1006.7 325.6 c0.4 0 0.9-0.4 0.9-0.5c-0.4 0.2-0.9 0.2-1.1 0.5H1006.7z M1009.3 323.6c-0.4 0.4-0.9 0.7-1.1 1.1L1009.3 323.6z M1008.3 345.6 c0 0.4 0.4 0.7 0.5 0.7C1008.8 345.9 1008.6 345.7 1008.3 345.6z M1014.2 345c0.2 0.4 0.5 0.7 1.1 0.7c0 0 0.2-0.2 0.4-0.2 C1015.1 345.6 1014.7 345.2 1014.2 345z M1014.2 378.5c0.4 0.4 1.2 0.5 2 0.5c0.4 0 0.5 0 0.9-0.2 C1016.5 378.7 1014.5 378.5 1014.2 378.5z M1014.5 350.2c0.4 0.2 0.7 0.5 1.1 0.5C1015.2 350.5 1014.7 350.2 1014.5 350.2z M1019.5 321c-0.2 0-0.2 0.2-0.4 0.2c0.4 0 0.5 0.2 0.7 0.2c0 0 0.2 0 0.2-0.2C1020 321.1 1019.7 321 1019.5 321z M1021.6 321.7 c0 0.2 2 1.1 2.5 1.2C1023.8 322.6 1022.9 321.7 1021.6 321.7z M1026.5 351.3c0.5 0.4 0.9 0.9 1.8 0.9 C1027.7 351.8 1027 351.4 1026.5 351.3z M1031.6 370.9c0-0.2 0-0.2 0-0.2c0 0.2-0.2 0.4-0.2 0.4 C1031.5 371 1031.6 371 1031.6 370.9z M1034.1 328.8c0-0.7 0-1.2-0.2-1.8c0 1.4-0.2 2.9-0.2 4.3 C1033.9 330.8 1034.1 329.7 1034.1 328.8z M1035.2 360.5c0 0.5 0.2 0.9 0.4 1.1C1035.6 361.2 1035.4 360.9 1035.2 360.5z"/><path d="M1074.9 332.7c0 2 0.2 3.9 0.2 5.9v3.6c0 1.8 0 3.6 0.2 5.3c2 0 3.9-0.4 5.7-0.4c1.4 0 2.9 0.2 4.3 0.2 c1.1 0 2.1-0.2 3.2-0.2c2.9 0 5.2 0.5 7.3 0.5c1.6 0 2.9-0.4 4.1-0.4h1.2c0.7 0 1.4-0.4 2.1-0.4h0.2c0.4-1.6 0.4-3.7 0.4-5.7v-3 c0-1.6 0.2-3.4 0.2-4.8c0-1.4 0.2-3-2.1-3h-1.4c-1.2 0-3.4-0.9-3.4-2.5c0-0.7 0.4-1.1 0.4-1.8c0-1.6-0.5-2.9-0.5-3.9 c0-0.9 0.7-1.2 1.4-1.2c1.1 0 2.1 0.4 2.9 0.4c0.7 0 1.4-0.2 2-0.2c0.5 0 0.9 0.2 1.2 0.5c1.8-0.4 4.3-0.7 6.8-0.7 c1.4 0 2.9 0.4 4.1 0.4c1.1 0 1.8-0.4 2.7-0.4c1.4 0 2.7 0.9 2.7 2.3c0 1.2-0.4 2.7-0.4 3.7c0 0.7 0.2 1.4 0.2 2 c0 1.2-0.7 1.8-2.7 1.8c-0.7 0-1.6 0-2.3 0c-0.5 0-1.1 0-1.1 0.4c0 2-0.7 3.6-0.7 5.7c0 1.4 0.4 2.5 0.4 4.1c0 1.2-0.4 2.7-0.4 3.9 c0 1.1 0.9 1.2 0.9 2.5c0 1.1-0.4 3.6-0.9 4.3c0 6.2 0.4 12.1 0.4 18.5c0.4 0.4 1.1 0.5 1.6 0.5c0.7 0 1.4-0.2 2.1-0.2 c1.1 0 2.7 0.4 2.9 1.8c0 0.5-0.2 1.1-0.2 1.6c0 1.1 0.2 2.1 0.2 3.2c0 0.4 0 0.9-0.2 1.4c0 0.4 0.2 0.5 0.2 0.9 c0 0.9-0.7 1.4-1.6 1.4c-1.1 0-1.6-0.7-2.5-0.7c-1.2 0-2.3 0.5-3.7 0.5c-1.8 0-3.9 0-5.3-0.2c-0.7 0-1.2-0.4-1.8-0.5 c-0.5 0-1.2 0.2-1.8 0.4h-0.5c-1.2 0-2 0.5-3.2 0.5c-1.8 0-3-1.2-3-7.1c0-0.5 0-2.9 1.4-2.9c0.7 0 1.4 0.2 2 0.2 c0.7 0 1.4-0.2 2.3-0.2h0.7c0.2-2.5 0.5-4.8 0.5-7.7c0-2.5 0-4.6-0.7-6.4c-0.4 0-0.9-0.2-1.2-0.2c-0.9 0-1.8 0.2-2.9 0.2 c-3.2 0-6.1-0.4-9.1-0.4c-4.5 0-13.2-0.2-14.8 0.7c-0.4 2.7-0.5 5.7-0.5 8.6c0 1.6 0 3.4 0 5c3 0.2 6.6-0.5 6.6 2.7 c0 2.9 0 7-2.3 7c-0.9 0-1.6-0.4-2.7-0.4c-2.3 0-4.8 0.7-7.7 0.7c-1.4 0-2.9-0.5-3.9-0.5c-1.1 0-2.5 0.4-3.9 0.4 c-1.8 0-3-0.9-3-3.4v-1.8c0-0.5 0-1.1 0-2c0-2.3 0.5-2.7 2.7-2.7c1.2 0 2.9 0.2 3.6 0.4c0.2-1.2 0.2-2.5 0.2-3.6v-2.5 c0-2.5 0.5-5.2 0.5-7.8v-2.5c0-2.1 0.4-4.5 0.4-6.6c0-1.2-0.5-2.5-0.5-3.7v-2c0-2.3-0.4-5.2-0.4-7.8c0-1.4 0-2.7 0.2-3.7 c-0.4 0-0.5 0-0.9 0h-0.7c-0.4 0-0.7-0.2-1.1-0.4c-0.5 0-1.1 0.2-1.6 0.2c-1.2 0-2.3-0.9-2.3-2.7v-1.6c0-1.4-0.5-1.6-0.5-3 c0-1.8 0.7-2.5 2.9-2.5c0.9 0 1.4 0.7 2.9 0.7c1.2 0 2.5-0.4 3.7-0.4c2.3 0 5 0.2 7.5 0.2c1.2 0 2.3 0 3.4 0c3.2 0 3.6 0.9 3.6 6.4 c0 2 0 2.9-2 2.9c-0.5 0-1.1 0-1.4 0h-1.6c-0.5 0-1.1 0-1.4 0C1074.9 330.8 1074.9 331.7 1074.9 332.7z M1065.9 324 c0 0-0.5 0-0.9 0c-0.7 0-1.8 0-2.3 0.2c0.2 0 0.2 0 0.2 0C1063.5 324 1065.9 324.2 1065.9 324z M1068.4 376.7h0.9 c-1.2 0-2.3-0.4-3.4-0.4c-0.4 0-0.9 0-1.2 0C1065.5 376.7 1066.9 376.7 1068.4 376.7z M1066.4 324l1.8 0.2c0.2-0.2 0.5-0.2 0.7-0.5 c-0.7 0-1.4 0.2-2.3 0.2h-0.2V324z M1067.8 367.7c0-0.4 0-0.9 0-1.2c0-0.5 0-0.9 0-1.2V367.7z M1069.2 349.7c0-0.7-0.4-1.4-0.5-2.1 c0.2 1.1 0 2.3 0.4 3C1069.1 350.4 1069.2 350 1069.2 349.7z M1071.6 327.9h-0.4c0.2 0.7 0.2 1.4 0.2 2 C1071.6 329.3 1071.4 328.4 1071.6 327.9z M1071.4 333.4c0 0.5 0 0.9 0 1.4c0 0.7 0 1.4 0.2 2 C1071.6 335.6 1071.6 334.1 1071.4 333.4z M1076 373.2c-0.2 0-0.4 0-0.5 0c0.2 0 0.5 0.2 0.7 0.2s0.4 0 0.4-0.2H1076z M1077.4 324.2L1077.4 324.2c0-0.4-0.2-0.4-0.2-0.4h-0.2C1077.3 324 1077.3 324.2 1077.4 324.2z M1089.9 350.7c-1.1 0-2.3 0-3.2 0 c0.9 0.2 2 0.2 3 0.2c1.2 0 2.5 0 3.4-0.4h-3.2V350.7z M1102.6 324.5c-0.2 0-0.2 0-0.4 0l0 0C1102 324.5 1102.2 324.5 1102.6 324.5 C1102.4 324.5 1102.6 324.5 1102.6 324.5L1102.6 324.5z M1113.8 323.6h-1.4c-2.9 0-5.3 0.2-7.3 1.1 C1107.6 324 1111 324 1113.8 323.6z M1107.6 372.3v-0.2l0 0c0 0.4-0.5 0.4-0.5 0.7C1107 372.3 1107.2 372.3 1107.6 372.3z M1107.9 364.3c0-0.4 0-0.7-0.2-1.1v1.4c0 0.5 0 0.9 0 1.2C1107.7 365.3 1107.9 364.8 1107.9 364.3z M1109.7 346.6v0.9 c0 1.2 0 2.5 0.5 3.2C1110.1 349.3 1110.1 347.9 1109.7 346.6z M1110.2 358c0 0 0-0.4 0-0.7c0-0.4 0-0.9 0-1.2c0 0.2 0 0.5 0 0.7 c0 0.4 0 0.7 0 1.1V358z M1117.4 374.3c0-0.2 0-0.7-0.2-0.9c-0.2 0.2-0.7 0-0.7 0.2C1116.7 373.7 1117 374.1 1117.4 374.3z"/><path d="M1180.1 368.9c-1.4-3.6-1.1-4.6-5.2-4.6c-1.2 0-2.5 0-3.2 0c-0.9 0-1.8-0.4-2.7-0.4c-1.4 0-2.9 0.4-4.3 0.4 c-1.8 0-3.4-0.5-5.3-0.5c-1.4 0-2.7 0.2-3.9 0.2c-0.7 2.3-2.3 3.7-2.7 6.4c3.9 0 5.2 0 5.2 4.5c0 2.5-0.2 4.8-2.7 4.8 c-1.1 0-2.3 0-3 0c-2.3 0-3.6 0.7-5.3 0.7c-1.1 0-2.1-0.5-2.9-0.5c-1.4 0-4.6 0.4-5.9 0.4c-1.8 0-3-0.4-3.2-2c0-0.5 0.4-1.8 0.4-3 c0-1.8-0.5-2.1-0.5-3.4c0-1.1 1.1-1.2 2.3-1.2c0.9 0 1.8 0 2.7 0c2.9 0 2.5-2 3.4-3.4c0.5-1.1 1.4-2 2-3c0.4-0.7 0.5-1.8 0.9-2.5 c1.6-3.4 2.9-9.6 5.9-13.5c1.8-2.3 2.9-4.5 3.6-7.7c0.9-3.6 3.2-5.9 4.3-9.3c1.1-3.6 2.5-5.2 4.1-9.3c0.5-1.2 0.5-2.5 2-2.5 c0.5 0 0.9 0.2 1.2 0.2c0.5 0 0.7-0.4 1.2-0.4c2.3 0 2.7 3 3.4 5c0.9 2.5 3 4.3 4.3 9.3c0 0.4 0 0.9 0.2 1.2c0.4 1.8 3 3.4 3 5.5 c0 1.8 1.4 2.9 2.1 4.1c1.1 2 0.7 3.9 2.1 6.8c0.9 2 2.1 3.7 3 5.9c0.9 2.5 2.3 6.4 3.6 8.4c0.9 2 2.5 3.4 3 5.2 c0.9 0 1.8 0 2.3 0.2c0.4-0.2 0.9-0.2 1.2-0.2c2 0 3 2 3 3.9c0 1.1-0.5 1.2-0.5 3c0 0.5 0 0.9 0 1.4c0 1.1-0.2 1.6-2 1.6 c-0.7 0-1.6-0.2-2.3-0.2c-0.9 0-2 0.2-2.9 0.2c-1.8 0-3-0.5-4.5-0.5c-0.7 0-1.8 0.5-3 0.5c-0.9 0-1.2-0.7-2.1-0.7 c-0.9 0-1.6 0.5-2.7 0.5c-3.7 0-3.6-2.9-3.6-5.9c0-5 2.1-3.6 5-4.3C1180.8 370 1180.3 369.4 1180.1 368.9z M1141.6 374.1h-3 c0 0.2 0 0.2 0 0.4C1139.7 374.4 1140.7 374.4 1141.6 374.1z M1144.6 377.3L1144.6 377.3C1144.8 377.3 1144.6 377.3 1144.6 377.3z M1144.8 377.3c0.4 0 0.7 0 1.1 0c1.1 0 2.1-0.4 3-0.5c-1.1 0-2.3 0.5-3.2 0.5H1144.8z M1151.6 363c-0.5 0.7-1.1 1.8-1.1 2.9 C1150.9 365 1151.4 363.9 1151.6 363z M1152.7 354.1c0 0.2-0.4 0.5-0.2 0.9C1152.5 354.8 1152.7 354.1 1152.7 354.1z M1153.4 376.7 c0.2 0 0.4 0 0.4-0.2c-0.2 0-0.7 0-0.9 0C1153 376.7 1153.2 376.7 1153.4 376.7z M1154.1 351.3c-0.2 0.4-0.7 0.7-0.7 1.2 C1153.7 352 1154.1 351.8 1154.1 351.3z M1157.5 358.2c0.4 0 0.9 0.2 1.2 0.2c0 0 0.2 0 0.4 0c-0.5 0-0.7-0.4-1.4-0.4 C1157.5 358 1157.5 358.2 1157.5 358.2z M1160.9 351.1c-0.5 1.6-1.4 2.9-2.1 4.1c0.9 0.2 1.8 0.2 2.7 0.2c1.2 0 2.7-0.2 4.1-0.2 s2.7 0.4 3.9 0.4c1.6 0 3 0 4.6 0c-0.4-0.9-0.4-1.8-0.7-2.7c-0.9-3.9-3.6-7.3-4.1-8.6c-0.4-1.1-0.5-2.3-0.9-3.2 c-0.2-0.4-1.6-3-1.6-3.4c0 0 0 0 0 0.2C1164.1 342.3 1162.1 346.8 1160.9 351.1z M1166 332.4c0 0 0-0.2 0-0.4 c0 0.4-0.5 0.9-0.5 1.2C1165.7 333.1 1166 332.7 1166 332.4z M1168.5 325.9c0.5 0.7 0.7 2 1.4 2.3 C1169.4 327.6 1169.1 326.7 1168.5 325.9z M1170.7 329.7c0.2 0.2 0 1.4 0.7 1.6C1171.2 330.8 1170.8 330 1170.7 329.7L1170.7 329.7 z M1172.6 361.4c0.2 0 0.5 0 0.7 0c-0.4-0.2-0.7-0.2-1.2-0.2c-0.4 0-0.7 0-1.1 0.2C1171.6 361.2 1172.1 361.4 1172.6 361.4z M1172.3 343.1c0 0.4 0.2 1.1 0.5 1.2C1172.8 344 1172.6 343.4 1172.3 343.1z M1176.4 351.4c0 0.2 0 0.4 0 0.4V351.4z M1177.4 345 c0 0.7 0.4 0.9 0.5 1.4C1177.8 345.7 1177.8 345.4 1177.4 345z M1181.5 373.5c-0.7 0.4-1.6-0.2-1.8 0.4 C1180.5 373.9 1181 373.9 1181.5 373.5z M1180.5 353.2L1180.5 353.2c0 0.2 0.2 1.1 0.5 1.1l0 0l-0.4-0.5 C1180.6 353.6 1180.5 353.2 1180.5 353.2z M1182.1 373.5h0.7c0 0 0-0.2-0.2-0.2C1182.4 373.4 1182.3 373.5 1182.1 373.5z M1188.1 369.1c-0.7-1.4-1.4-2.9-2.3-4.1c0.2 1.1 0.9 1.6 1.2 2.5C1187.4 368.2 1187.6 368.9 1188.1 369.1z M1190.8 377.5 c0.2 0 0.5 0 0.7-0.2c-0.5 0-1.1-0.2-1.8-0.2c-0.5 0-1.1 0-1.4 0.2C1189.2 377.3 1189.9 377.5 1190.8 377.5z M1194.7 374.1h0.5 c-0.2 0-0.2 0-0.4 0C1194.7 374.1 1194.9 373.9 1194.7 374.1z"/></g><g><path d="M854.3 533.4c4.1 7.1 2.1 16.4 18.5 16.4c1.2 0 2.1 0 3.4 0c3.6 0 7 2 7 7.7c0 2.7-0.5 5.7-0.5 8.4c0 1.2 0.2 3.2 0.2 5.2 c0 8.4-4.6 7.3-10.7 7.3c-1.8 0-4.1-0.9-6.1-0.9c-1.8 0-3.6 0.9-6.1 0.9c-9.3 0-10.2-5.9-18-18.5c-4.3-6.8-7.5-11.8-15.5-24.1 c-1.8-2.9-3-6.4-5.3-8.4c-1.8 1.2-5 1.8-8.2 1.8c-4.3 0-6.8-2.5-9.8-2.5c-1.2 0-3.6 3.4-3.6 5.7c0 2.1 0.4 4.5 0.4 7.1 c0 2.5 0 5.2 0 7.7c0 8 15.3-3.2 15.3 11.6c0 1.4 0 3.2 0 4.5c0 1.8 0 3.4 0 4.8c0 5.3-0.4 9.8-4.8 10c-1.1 0-2.1-0.7-3.4-0.7 c-2.9 0.5-6.1 2.9-9.6 2.9c-4.8 0-8.6-2.9-13.9-2.9c-5.9 0-8.9 2.9-16.2 2.9c-5.3 0-8.2-2.7-8.2-8.6c0-2.9 0.5-6.1 0.5-9.3 c0-4.1-1.6-5.2-1.6-7.3c0-3.9 11.8-4.6 16.6-4.6c0.2-2 0.9-4.1 0.9-6.4c0-5.7-1.1-11.9-1.1-18.2c0-2.5 0.2-4.8 0.5-7.1 c-0.4-2-1.2-3.7-1.2-5.7c0.4-2.7 1.2-3.4 1.2-7.1c0-23.4 0.2-49.7-0.9-72.4c-3.2-0.5-5.3-1.2-6.6-1.2c-1.1 0-1.6 0.7-2.7 0.7 c-3.2 0-5.3-3.2-5.3-8.4c0-1.8 0-3.9 0-5.9c0-2.7-0.5-6.1-0.5-9.1c0-2 0.5-3.7 2.7-3.7c3.2 0 5.3 1.2 8.9 1.2 c8.6 0 16.6-1.8 23.7-1.8c1.6 0 3.4 0 5.2 0.2c1.8 0 3.4 0 5.2 0c3.7 0 7.7 1.2 11.4 1.4c6.6 0.7 13.7 0 19.6 1.4 c7 1.8 16.2 4.8 22.3 10.5c11.8 11.2 15 24.8 15.5 26.2c0.9 3.4 2.9 4.8 2.9 10c0 4.5-0.2 9.1-0.4 13.5c-0.2 4.8-2.1 9.1-2.1 13.9 c0 0.9 0 2 0 2.9c0 12.5-6.8 18.9-11.6 25.3c-4.5 5.7-8.2 9.6-14.3 13C848.7 528.3 852.3 530.2 854.3 533.4z M851.6 502.8 c1.6-2.5 3.7-4.1 5-6.6c1.8-3.4 2.1-7.3 3-11.6c0.9-3.9 2.7-6.8 2.7-13c0-2.7-0.2-5.3-0.2-8c0-2.9 0.2-6.1 0.2-9.1 c0-7.1-2.9-14.3-6.1-19.1c-4.3-6.1-19.6-18.5-58.6-18.5c-2.7 0-5.3 0.2-8.2 0.2c-1.2 0-2.5-0.7-3.6-0.7c-0.9 0-1.1 0.7-1.6 1.2 c-2.9 0.5-5.9 0.9-9.1 0.9c-1.4 0-3.2-0.2-4.8-0.2c-1.4 0-2.5 0.2-2.7 2c0 2.5 1.4 2.9 3.7 2.9c5 0 8.6-0.7 12.3-1.1 c-0.9 1.8-1.1 3.9-1.1 6.1c0 1.4 0.2 2.9 0.4 4.6c1.2 13.9 1.8 30.7 1.8 47.1c0 8.4-0.9 17.5-0.9 26.4c0 14.6 0.5 28.9 0.5 43 c0 4.5-0.2 8.7-1.2 13c-2.7-0.2-5.7-0.2-8.9-0.2c-2.7 0-6.6-0.5-6.6 2.7c0 1.8 1.4 2.1 3.4 2.1c3 0 5.7-0.5 7.5-0.5 c7.3 0 13.7 2 22.3 2c2.1 0 4.3-0.5 4.3-2.5c0-3.2-13-2-17.6-3.4c0.4-4.1 0.5-8.7 0.5-13.7c0-9.6-0.4-20.1-0.4-28.9 c0.5 0.2 1.2 0.2 1.8 0.2c4.6 0 8.4-1.2 13-1.2c5.2 0 10.7 0.2 15.7 0.2c3.4 0 6.6-0.2 9.1-1.8c1.2 1.8 1.4 4.1 2.1 6.1 c2 4.5 5.9 7.3 8.4 11.1c3.6 8.6 11.8 15 16.2 25.7c3.2 8 6.6 8.4 17.1 8.4c1.4 0 2.7-0.5 2.7-2.1c0-2.5-4.3-2.9-7.8-2.9 c-1.2 0-2.7 0-3.6 0c-4.3 0-4.3-3.9-6.2-7.8c-4.8-9.1-9.8-15-15.3-23.7c-3.2-5.2-8.9-8.4-9.4-15.7 C840.5 514.7 846.8 509.5 851.6 502.8z M793.8 421.1c10.2 0 18.7 2.9 29.1 2.9c3 0 6.4 0 8.9 0.5c10 2.1 26.9 11.6 26.9 29.6 c0 2.7-0.2 5.7-0.2 8.4c0 3.4 0.2 6.4 0.2 9.1c0 5.7-1.6 7.7-2.5 11.6c-1.8 7.7-1.6 8.4-6.8 15.7c-5.7 7.7-10.5 11.1-20.9 13.5 c-3.2 0.7-5 2.5-8.9 2.5c-5.3 0-10.2-0.5-14.6-0.5c-5.7 0-11.1 0.7-17.3 0.9c0-1.8 0.2-3.7 0.2-5.3c0-3.9-0.2-8-0.2-12.3 c0-6.4 0.9-12.7 0.9-19.1c0-3.9-0.2-8-0.2-11.9c0-3.7 0-7.1 0-10.7c0-6.4-1.4-12.7-1.4-17.6c0-1.2 0.2-2.1 0.2-3.4 c-0.2-2-0.5-4.1-0.5-6.4c0-0.5 0-0.7 0-1.2c0.2-1.8 1.2-5.7 1.4-5.7C789.9 421.3 791.9 421.1 793.8 421.1z M807 501 c3.2 0 5.9-0.9 9.8-0.9c1.6 0 3.4 0.2 5 0.2c8 0 16.4-4.5 20.5-8c5-4.6 6.2-19.1 6.2-28.9c0-26.4-28.5-29.9-31.7-30.1 c-2.5-0.2-4.8-0.2-7.3-0.2c-2.7 0-11.1 0.2-11.1 2c0 2.7 0.5 5.2 0.5 7.7c0 4.5-1.1 9.1-1.1 13.5c0 2.9 1.1 5.9 1.1 8.7 c0 0.7 0 1.2 0 2c0.4 4.5 1.6 8.4 1.6 12.3c0 3.7-1.4 6.6-1.4 11.2c0 5.9-0.5 10 6.8 10.7C806.5 501 806.7 501 807 501z"/><path d="M954.1 443.6c0 4.1 0.9 9.3 0.9 14.1c0 5.7-1.6 10.2-1.6 14.3c0 3.2 1.6 5.2 1.6 9.1c0 6.6-1.1 12.3-1.1 18 c0 9.6 1.4 18.7 1.4 28c0 8.2-0.5 16.2-0.9 23.9c0.9 0.5 1.8 0.5 2.9 0.5c2.3 0 4.8-0.7 7-0.7c2.7 0 6.4 2 6.4 7.1 c0 3.4-1.6 7.1-1.6 11.6c0 2 0.5 3.7 0.5 5.7c0 5.7-32.8 4.5-33 4.5c-2.9 0-5.2-1.4-7.3-1.4c-1.4 0-2.7 0.7-3.7 0.7 c-5.2 0-10.9 0.2-12.1-5.2c-0.9-3.4-0.4-7.3-0.9-12.1c-0.2-1.4-1.2-3.7-1.2-5.9c0-4.1 2.7-5.2 6.6-5.2c2.5 0 4.8 1.1 6.8 1.1 c1.6 0 2.5-1.1 3.9-1.1c0.2 0 0.2 0 0.4 0c0-7.7 0.4-15.3 0.4-22.6c0-5.7-1.2-10.3-1.2-15.3c0-1.8 0.2-3.4 0.2-5.2c0-2 0-4.1 0-6.1 c0-4.6 1.1-8.9 1.1-13.7c0-5.2-1.6-9.8-1.6-16c0-6.6 2.1-9.8 2.1-16.4c0-5.2-1.2-10.3-1.2-15c0-2.1 0.2-3.9 0.9-5.9 c-1.8 0-3.9 0.2-5.7 0.2c-6.1 0-10.9-1.2-10.9-11.1c0-2 0.2-4.5 0.2-6.6c0-1.8-0.2-3.7-0.2-5.7c0-4.5 3-6.1 6.4-6.1 c2.3 0 4.8 0.7 7.3 0.7c3.9 0 8-0.7 12.1-0.7c6.4 0 13.2 1.2 19.6 1.2c1.4 0 3.6-0.5 5.3-0.5c2.7 0 6.1 2.1 6.1 5.9 c0 1.1 0 2.1 0 3c0 1.2 0.4 2.1 0.4 3.7c0 2.1-0.5 4.1-0.5 7c0 1.4 0 3 0 4.1c0 4.5-1.8 5.2-5 5.2c-1.1 0-2.3-0.2-3.4-0.2 c-3.7 0-3.9 2-5.7 2c-0.2 0-0.5-0.2-0.9-0.2C954.6 438.4 954.1 441.1 954.1 443.6z M947.1 421.8c3 0 6.8-0.5 9.1-0.5 c0.5 0 1.4 0.2 2.1 0.2c1.1 0 1.8-0.5 1.8-2.1c0-2-1.6-2.5-3.6-2.5c-2.5 0-4.5 0.5-7.3 0.5c-4.8 0-10.5-0.7-15.3-0.7 c-0.4 0-12.5-0.7-12.5 3.2c0 1.8 0.9 2.1 1.8 2.1c2.3 0 4.8-0.7 7-0.7c1.6 0 3.6 0 5.2 0c1.1 0 2.1 0 3 0c0 0.5-0.2 0.7-0.2 1.2 c0 5 2.9 8.2 2.9 13.5c0 5.9-1.4 10.9-1.6 15.7c-0.5 10.5-0.2 22.1-0.2 33.5c0 16 0.9 31.7 0.9 46.7c0 7.8-1.8 14.4-1.8 21.6 c0 3 0.2 5.7 0.4 7.8c-2.9 0-4.8 1.1-7.7 1.1c-1.2 0-2.7 0-4.1 0c-2.7 0-5 0.2-5.2 2c0 2.5 2.5 3.2 5.5 3.2c7.3 0 9.3-1.8 14.4-1.8 c2.9 0 9.4 1.8 14.4 1.8c1.6 0 2.9-0.5 2.9-2.1c0-3.9-12.1-2.7-16.4-4.1c-0.4-2.5-0.5-5.2-0.5-8.2c0-7.3 1.6-15.5 1.6-24.8 c0-18.7-1.1-40.1-1.1-60.1c0-11.6 2.1-21.4 2.1-32.6c0-5.3-2.7-8.4-2.7-13c0-0.5 0-0.7 0.2-1.2 C943.9 421.8 945.4 421.8 947.1 421.8z"/><path d="M1068.7 446.6c0 8.2 0.2 16.2 0 24.6c0 4.1-0.7 7.8-0.5 11.8c0.2 1.2 0.7 2.1 1.1 3.4c0.5 4.3 0.5 8.4 0.4 11.9 c-0.2 3.4-1.1 6.4-1.4 10.5c-0.2 3.4 0.7 7.8 1.2 11.8c0.2 4.3-0.2 8.9-0.5 13.4c-0.5 4.3 0.2 8.9 0.2 13.2 c2.9 0.7 3.9 2.1 6.8 2.1c1.4 0.2 2.9-0.7 4.5-0.5c2 0.5 3.9 2.7 4.6 4.8c0.5 3-0.4 7-0.2 11.1c0 3.7 1.4 8.9-0.4 10.5 c-1.2 1.2-2.9 0.7-5 0.7c-1.1 0-2.1 0.2-3.6 0.2c-2.3 0-4.6-0.9-6.2-0.9c-2.9 0.2-5 1.2-7.3 1.4c-2.3 0.5-5.3 0.7-8.2 0.5 c-1.2-0.2-2.7-1.2-3.9-1.2c-0.7-0.2-1.6 0.2-2.3 0c-2 0-3.6-0.5-5.3-0.5c-2.1 0.2-6.6 1.2-8.7 0.5c-1.8-0.5-3.6-2.9-3.9-4.3 c-0.2-1.2 0.2-2.9 0.2-4.5c0.2-2.1 0.2-4.8 0-6.8c-0.2-3-1.4-5.2-1.1-7.5c1.2-5.5 9.4-3.6 15-3.6c0-8.6 0.4-16.8 1.1-25.1 c0.2-4.3 0.7-8.4 0.7-12.5c0-4.3-0.5-8.4-0.4-12.7c0.2-2.1 0.5-2.9 0.5-4.5s-0.5-3.4-0.7-5.2c-0.4-4.5 0-10.3 0.2-15 c0.2-1.6 0.4-2.9 0.4-4.3c0-2.7-0.5-5-0.7-7.8c-0.2-2.3-0.2-5 0-7.5c0-1.2 0.4-2.1 0.4-3c0.2-3.4-0.5-6.4-0.5-9.3 c-0.2-2.3 0.2-5.5-0.7-6.4c-1.4-1.2-6.6 0-8.9-0.2c-2.9-0.2-4.6-1.2-7.1-0.9c-2.7 0-5 1.4-8.2 0.9c0.2 3.4-1.2 6.1-1.2 9.1 c-0.2 2.9 1.8 5.9 0.2 8.4c-1.1 1.4-3.2 1.2-5.7 1.2c-5.5 0.2-13.2 1.4-15-4.3c-0.7-2.3-0.5-8.4-0.4-12.5c0.2-2.1 0.7-4.1 0.7-6.4 c0-4.1-0.4-8.2-0.5-11.2c-0.2-4.5-0.4-10 1.8-11.2c1.6-0.9 5.3-0.2 7.8 0.2c2.9 0.5 5.7 0.2 7.7 0c3-0.2 5.5-0.2 8.2-0.5 c6.6-0.9 13 0.5 20 0.5c3.7 0 7.8 0.5 11.8 0.2c8.4-0.5 16.6-1.4 24.8-0.5c4.1 0.5 8.4 0.5 12.3 0.5c4.5 0 8.4-1.2 12.3-1.4 c6.1-0.5 11.1 0.9 12.3 6.4c0.7 3.7 0 9.6-0.2 14.3c-0.2 4.8-0.5 9.3-1.1 13.4c0 2.9 0.5 7-0.2 9.1c-1.2 3.4-5.5 3-10 3 c-2.7 0-5 0.2-6.6-0.5c-2-0.7-3.9-3.4-4.1-5.5c0-1.6 0.5-2.9 0.5-4.3c0.2-2.3 0-4.1-0.7-6.8c-3.2-1.4-7.1-1.4-11.4-1.4 c-4.3 0-8.6 0-12.5 0C1068.4 438.6 1068.7 442.7 1068.7 446.6z M1102.4 426.3c0 4.3-0.5 8.2-0.5 13.5c0 2.3 0.4 4.8 1.8 4.8 c2.9 0 2.7-9.1 2.7-17.1c0-3.4-0.4-6.4-2.1-7.7c-19.8 0.5-42.6 0.7-64 0.7c-7.3 0-13.5-2-20.7-2c-2 0-2.9 0.5-5.3 0.5 c-1.1 0-2 0-2.9 0c-3.9 0-4.5 1.2-4.5 4.1c0 3 0.4 6.8 0.4 9.8c0 2-0.2 4.1-0.2 5.7c0 2.7 0.4 4.5 1.8 4.5c2.7 0 2.1-6.2 2.1-9.1 c0-4.1-0.2-7-0.4-10.5c0.5 0 1.2 0.2 1.8 0.2c2.7 0 5.2-0.7 7.8-0.7c6.6 0 11.6 2 17.8 2c5.5 0 11.1-0.5 16.8-0.7 c-0.2 0.7-0.2 1.6-0.2 2.3c0 4.1 0.7 8.2 0.7 11.4c0 1.6 0 3 0 4.5c0.4 5.7 0.4 11.4 0.4 17.1c0 5 0 10 0 15 c0 5.9 0.2 11.9 0.2 17.6c0 10.5-1.2 20.9-1.2 31.4c0 7.5 0.2 14.8 0.2 22.3c0 4.3 0 8.9-0.2 13.4c-0.7 0.2-1.8 0.2-2.9 0.2 c-2.1 0-4.8-0.2-7.1-0.2c-0.5 0-6.4 0-6.4 4.1c0 0.9 1.4 2.3 2 2.3c1.8 0 2.3-2.3 7.8-2.3c9.4 0 12.1 2 19.4 2 c3.6 0 5.7-0.5 5.7-2.3c0-2-2-2.3-3.9-2.3c-1.2 0-2.7 0.2-3.4 0.2c-3.2 0-5-0.5-7.3-1.2c0-24.8 1.1-49.2 1.1-71.8 c0-4.8-0.2-9.3-0.2-13.9c0-3.6 0.4-7 0.4-10.5c0-13.5-0.7-26.7-1.4-39.2c8.4 0 17.1 0.2 25.7 0.2c6.4 0 12.5-0.2 18.5-0.5 C1102.4 424.9 1102.4 425.6 1102.4 426.3z"/><path d="M1183.1 443.2c0 4.3 0.9 9.4 0.9 14.1c0 5.7-1.6 10.2-1.6 14.4c0 3.2 1.6 5.2 1.6 9.1c0 6.8-1.1 12.3-1.1 18 c0 9.6 1.4 18.9 1.4 28.2c0 8.2-0.5 16.4-0.9 24.1c0.9 0.5 1.8 0.5 2.9 0.5c2.3 0 4.8-0.7 7-0.7c2.7 0 6.4 2 6.4 7.1 c0 3.4-1.6 7.1-1.6 11.6c0 2 0.5 3.7 0.5 5.7c0 5.7-32.6 4.5-33 4.5c-2.9 0-5.2-1.4-7.1-1.4c-1.4 0-2.7 0.7-3.7 0.7 c-5.2 0-10.9 0.2-12.1-5.2c-0.9-3.4-0.4-7.5-0.9-12.1c-0.2-1.4-1.2-3.7-1.2-5.9c0-4.3 2.7-5.2 6.6-5.2c2.5 0 4.8 1.1 6.8 1.1 c1.6 0 2.5-1.1 3.9-1.1c0.2 0 0.2 0 0.4 0c0-7.7 0.4-15.3 0.4-22.8c0-5.7-1.2-10.3-1.2-15.3c0-1.8 0.2-3.4 0.2-5.2c0-2 0-4.3 0-6.2 c0-4.6 1.1-8.9 1.1-13.9c0-5.2-1.6-10-1.6-16c0-6.8 2.1-10 2.1-16.6c0-5.2-1.2-10.3-1.2-15.2c0-2.3 0.2-3.9 0.9-5.9 c-1.8 0-3.9 0.2-5.7 0.2c-5.9 0-10.9-1.2-10.9-11.2c0-2 0.2-4.5 0.2-6.8c0-1.8-0.2-3.7-0.2-5.7c0-4.5 3-6.2 6.4-6.2 c2.3 0 4.8 0.7 7.1 0.7c3.9 0 8-0.7 12.1-0.7c6.4 0 13.2 1.2 19.6 1.2c1.4 0 3.6-0.5 5.3-0.5c2.7 0 5.9 2.3 5.9 5.9 c0 1.1 0 2.3 0 3c0 1.2 0.4 2.3 0.4 3.7c0 2.3-0.5 4.3-0.5 7c0 1.4 0 3 0 4.3c0 4.5-1.8 5.2-5 5.2c-1.1 0-2.3-0.2-3.2-0.2 c-3.7 0-3.9 2-5.7 2c-0.2 0-0.5-0.2-0.9-0.2C1183.7 437.9 1183.1 440.7 1183.1 443.2z M1176 421.3c3 0 6.8-0.5 9.1-0.5 c0.5 0 1.4 0.2 2.1 0.2c1.1 0 1.8-0.5 1.8-2.3c0-2-1.6-2.5-3.6-2.5c-2.5 0-4.5 0.5-7.1 0.5c-4.8 0-10.5-0.7-15.2-0.7 c-0.4 0-12.3-0.7-12.3 3.2c0 1.8 0.9 2.3 1.8 2.3c2.3 0 4.8-0.7 7-0.7c1.6 0 3.6 0 5.2 0c1.1 0 2.1 0 3 0c0 0.5-0.2 0.7-0.2 1.2 c0 5 2.9 8.2 2.9 13.5c0 5.9-1.4 10.9-1.6 15.9c-0.5 10.7-0.2 22.3-0.2 33.7c0 16 0.9 31.9 0.9 47.1c0 7.8-1.8 14.6-1.8 21.7 c0 3 0.2 5.7 0.4 7.8c-2.9 0-4.8 1.1-7.7 1.1c-1.2 0-2.7 0-4.1 0c-2.7 0-5 0.2-5.2 2c0 2.5 2.5 3.2 5.5 3.2c7.1 0 9.3-1.8 14.4-1.8 c2.9 0 9.4 1.8 14.4 1.8c1.6 0 2.9-0.5 2.9-2.3c0-3.9-12.1-2.7-16.2-4.3c-0.4-2.5-0.5-5.2-0.5-8.2c0-7.5 1.6-15.7 1.6-25 c0-18.9-1.1-40.5-1.1-60.4c0-11.6 2.1-21.6 2.1-33c0-5.5-2.7-8.4-2.7-13.2c0-0.5 0-0.7 0.2-1.2C1173 421.3 1174.4 421.3 1176 421.3 z"/></g></svg>